<svg version="1.1" id="Layer_1" xmlns="http://www.w3.org/2000/svg" xmlns:xlink="http://www.w3.org/1999/xlink" x="0px" y="0px" viewBox="0 0 500 500" style="width: 144px;" xml:space="preserve" data-imageid="advertising-5-83" imageName="Advertising 5" class="illustrations_image">
<style type="text/css">
	.st0_advertising-5-83{fill:#D1D3D4;}
	.st1_advertising-5-83{fill:#FFFFFF;}
	.st2_advertising-5-83{fill:#68E1FD;}
	.st3_advertising-5-83{fill:#231F20;}
</style>
<g id="Waves_advertising-5-83">
	<path class="st0_advertising-5-83" d="M315.3,297.9c-4.2,0-7.4-1.4-10.7-2.9c-2.3-1.1-4.6-1.9-7-2.5c-1.7-0.4-3.3-1.1-4.9-1.9l-0.2-0.1&#10;&#9;&#9;c-0.7-0.3-1.4-0.7-2.1-1c-0.6-0.3-1.2-0.5-1.9-0.7c-3.9-1-5.5-0.6-8.8,0.3c-0.9,0.2-1.9,0.5-3.1,0.8s-2.8,0.6-4.3,0.9&#10;&#9;&#9;c-6.7,1.3-13.5,2.2-20.4,2.6h-0.8c-2.4,0.1-4.3,0.1-6,0c-6.4-0.3-13.5-3.1-15.6-8c-2.2,3.4-4.9,6.9-9.2,9.3&#10;&#9;&#9;c-3.4,1.9-7.7,2.9-13.1,3.1c-3.2,0.1-6.3,0-9.4-0.3c-9.1-0.8-25.3-3.6-32.9-12.8c-3.5,5.1-10.4,8.9-18,9.7&#10;&#9;&#9;c-9.5,1.1-17.9-1.9-22.6-7.9c-1.4,3-3.6,5.5-6.2,7.4c-0.3,0.2-0.8,0.2-1-0.1c-0.2-0.3-0.1-0.8,0.2-1c2.8-1.9,5-4.7,6.2-7.9&#10;&#9;&#9;c0.1-0.3,0.3-0.4,0.6-0.5c0.3,0,0.5,0.1,0.7,0.3c4.3,6.3,12.5,9.4,22.1,8.4c7.6-0.9,14.4-4.8,17.5-9.9c0.1-0.2,0.3-0.3,0.6-0.4&#10;&#9;&#9;c0.2,0,0.5,0.1,0.6,0.3c6.9,9.4,23.3,12.2,32.5,13c3.1,0.3,6.2,0.4,9.3,0.3c5.2-0.2,9.2-1.2,12.5-3c4.5-2.5,7.2-6.5,9.5-10&#10;&#9;&#9;c0.2-0.3,0.7-0.4,1-0.2c0.2,0.1,0.3,0.3,0.3,0.4c1.1,5,8.4,8,14.8,8.3c1.6,0.1,3.5,0.1,5.8,0h0.8c6.8-0.4,13.5-1.3,20.2-2.6&#10;&#9;&#9;c1.5-0.3,2.9-0.6,4.2-0.9s2.1-0.5,3-0.8c3.4-0.9,5.3-1.4,9.5-0.3c0.7,0.2,1.4,0.4,2.1,0.7c0.7,0.3,1.4,0.6,2.2,1l0.2,0.1&#10;&#9;&#9;c1.4,0.8,3,1.4,4.6,1.8c2.5,0.6,5,1.5,7.3,2.6c4.1,1.8,8,3.5,13.8,2.4c6.3-1.2,11-5.9,10.3-10.2c-0.1-0.4,0.2-0.7,0.5-0.8&#10;&#9;&#9;c0.4-0.1,0.7,0.1,0.9,0.5c2.1,6.1,12.2,9.1,20.2,8c0.1,0,0.2,0,0.2,0c7-1,13.9-4.3,21-10.3c0.2-0.1,0.3-0.2,0.5-0.2&#10;&#9;&#9;c0.2,0,0.4,0.1,0.5,0.3c4.4,5.5,9.6,8.8,15.4,9.9c6.4,1.1,14.8-1.2,16.3-6.2c0.1-0.3,0.3-0.5,0.6-0.5c0.3,0,0.5,0.1,0.7,0.3&#10;&#9;&#9;c4.1,5.6,12.6,9.4,21.2,9.4s17.2-3.6,21.4-9.2c0.1-0.2,0.3-0.3,0.5-0.3c0.2,0,0.4,0.1,0.5,0.2c5.1,4.5,13.8,6.8,21.6,5.7&#10;&#9;&#9;c0.4,0,0.8,0.2,0.8,0.6c0.1,0.4-0.2,0.7-0.6,0.8c0,0,0,0,0,0c-8.1,1.1-16.7-1.1-22.2-5.6c-4.6,5.5-13.2,9.1-21.9,9.1h-0.2&#10;&#9;&#9;c-8.6,0-17-3.5-21.5-9c-2.6,5-10.9,7.1-17.4,6c-6-1.1-11.3-4.4-15.8-9.8c-7.1,5.8-14,9.1-21.1,10.1l-0.2,0&#10;&#9;&#9;c-7.6,1-16.8-1.4-20.5-6.5c-1,4.2-5.5,8-11.3,9.1C317.9,297.8,316.6,298,315.3,297.9z"/>
	<path class="st0_advertising-5-83" d="M100.4,299.5c-9.5,0-18.8-4.3-23-10.7c-11.2,8.8-29.4,11.9-43.5,7.3c-0.4-0.2-0.5-0.6-0.4-1&#10;&#9;&#9;c0.1-0.3,0.5-0.5,0.8-0.4c13.9,4.6,31.9,1.4,42.7-7.5c0.2-0.1,0.4-0.2,0.6-0.1c0.2,0,0.4,0.2,0.5,0.4c3.9,6.7,14,11.2,23.9,10.6&#10;&#9;&#9;c1-0.1,2-0.2,3-0.3c0.4-0.1,0.8,0.2,0.8,0.6c0,0,0,0,0,0c0.1,0.4-0.2,0.8-0.6,0.9c-1,0.2-2.1,0.3-3.2,0.4&#10;&#9;&#9;C101.6,299.5,101,299.5,100.4,299.5z"/>
	<path class="st0_advertising-5-83" d="M43.5,330.2c-4.1,0-8-1.8-10.6-4.9c-0.2-0.3-0.2-0.7,0.1-1c0.3-0.2,0.7-0.2,1,0.1c4.4,5.2,12.2,5.9,17.5,1.5&#10;&#9;&#9;c1.3-1.1,2.3-2.4,3.1-3.9c0.1-0.2,0.2-0.3,0.4-0.4c0.2-0.1,0.4,0,0.6,0.1c3.5,2.1,7.1,4.2,11.1,4.9c6.2,1,12.7-1.8,17.9-4&#10;&#9;&#9;c0.4-0.1,0.8,0.1,0.9,0.5c0.1,0.3,0,0.7-0.3,0.8c-5.4,2.3-12,5.2-18.7,4.1c-4-0.7-7.7-2.8-11-4.7C53,327.6,48.4,330.3,43.5,330.2&#10;&#9;&#9;L43.5,330.2z"/>
	<path class="st0_advertising-5-83" d="M412.5,330.7c-4,0.1-7.9-1.4-10.7-4.3c-0.3-0.3-0.3-0.8,0-1s0.8-0.3,1,0c4.1,4.5,11.1,4.5,15.9,2.7&#10;&#9;&#9;c5.7-2.1,10.2-6.6,13.9-10.6c0.2-0.2,0.4-0.3,0.6-0.2c0.2,0,0.4,0.2,0.5,0.4c6.3,10.3,19.8,13.5,30.1,7.2c0,0,0,0,0.1,0&#10;&#9;&#9;c0.3-0.3,0.8-0.2,1,0.1s0.2,0.8-0.1,1c0,0-0.1,0.1-0.1,0.1c-10.7,6.6-24.6,3.6-31.6-6.9c-3.7,4-8.2,8.2-13.8,10.3&#10;&#9;&#9;C417.1,330.3,414.8,330.7,412.5,330.7z"/>
	<path class="st0_advertising-5-83" d="M171.4,316.5c-3.6,0-7-1.2-9.8-3.4c-0.3-0.3-0.3-0.7-0.1-1c0.3-0.3,0.7-0.3,1-0.1c5.3,4.4,14.2,4,19-1&#10;&#9;&#9;c0.2-0.3,0.7-0.4,1-0.2s0.4,0.7,0.2,1c-0.1,0.1-0.1,0.1-0.2,0.2C179.5,314.9,175.5,316.5,171.4,316.5z"/>
</g>
<g id="beach_advertising-5-83">
	<path class="st0_advertising-5-83" d="M28.6,381.9c-0.3,0-0.5-0.1-0.6-0.3c-0.2-0.3-0.1-0.8,0.2-1c0.4-0.2,38.3-24,71.9-35.2&#10;&#9;&#9;c4.9-1.6,10-3.2,15.1-4.7c32.6-9.3,63.3-12.8,91.4-10.5c9.9,0.8,21.2,2,34.5,3.7c5.3,0.7,11.1,1.5,18.3,2.5&#10;&#9;&#9;c6,0.8,12.1,1.7,18.2,2.6l17.1,2.5c13.9,2.1,28.2,4.2,42.1,6.1c8.1,1.1,14.8,2,20.9,2.7c8.5,1,16.8,1.9,24.6,2.7&#10;&#9;&#9;c37.3,3.4,62.3,2.3,78.6-3.3c0.4-0.1,0.8,0.1,0.9,0.4c0.1,0.4-0.1,0.8-0.5,0.9c-16.5,5.7-41.7,6.7-79.3,3.4&#10;&#9;&#9;c-7.8-0.7-16.1-1.6-24.6-2.7c-6.2-0.7-12.8-1.6-21-2.7c-13.9-1.9-28.3-4-42.2-6.1c-5.7-0.9-11.4-1.7-17.1-2.5&#10;&#9;&#9;c-6.1-0.9-12.2-1.8-18.1-2.6c-7.2-1-13-1.8-18.3-2.5c-13.2-1.7-24.5-2.9-34.4-3.7c-27.9-2.3-58.5,1.3-90.9,10.5&#10;&#9;&#9;c-5.1,1.4-10.2,3-15.1,4.6c-33.4,11.2-71.2,34.8-71.6,35.1C28.8,381.8,28.7,381.9,28.6,381.9z"/>
</g>
<g id="tree_advertising-5-83">
	<path class="st0_advertising-5-83" d="M113,194.1c-0.4,0-0.7-0.3-0.7-0.7l0,0c0-0.4,0.3-0.7,0.7-0.7c0.4,0,0.7,0.3,0.7,0.7l0,0&#10;&#9;&#9;C113.7,193.7,113.4,194.1,113,194.1z"/>
	<path class="st0_advertising-5-83" d="M113.3,196.6c-0.3,0-0.6-0.2-0.7-0.6c0-0.1,0-0.1,0-0.2c-0.1-0.4,0.2-0.8,0.6-0.8c0.4-0.1,0.7,0.1,0.8,0.5&#10;&#9;&#9;c0,0.1,0,0.1,0,0.2c0.1,0.4-0.1,0.8-0.5,0.9L113.3,196.6z"/>
	<path class="st0_advertising-5-83" d="M109,193.7c-0.4,0-0.7-0.3-0.7-0.7c0-0.3,0.2-0.6,0.5-0.7l0.1-0.1c0.4-0.1,0.8,0.1,0.9,0.5&#10;&#9;&#9;c0.1,0.3-0.1,0.7-0.4,0.8l-0.1,0.1L109,193.7z"/>
	<path class="st0_advertising-5-83" d="M100.3,346.7c-0.2,0-0.3-0.1-0.5-0.2c-0.2-0.2-0.3-0.4-0.2-0.7c2.5-15.8,4.1-31.6,4.9-47.6&#10;&#9;&#9;c1.7-30.1,1.6-61.5,1.1-82.4c0-0.4,0.3-0.7,0.7-0.7l0,0c0.4,0,0.7,0.3,0.7,0.7c0.4,21,0.6,52.4-1.1,82.6&#10;&#9;&#9;c-0.8,15.6-2.4,31.1-4.8,46.5c4.4-1.5,9-2.9,13.5-4.1c0.8-11,1.7-28,2.2-47.5c0.8-35.1-0.3-65.5-3.3-90.5c0-0.4,0.2-0.8,0.6-0.8&#10;&#9;&#9;c0.4,0,0.8,0.2,0.8,0.6c3.1,25,4.2,55.5,3.4,90.7c-0.4,19.8-1.4,37-2.2,48.1c0,0.3-0.2,0.6-0.5,0.6c-5.1,1.4-10.2,3-15.1,4.6&#10;&#9;&#9;L100.3,346.7z"/>
	<path class="st0_advertising-5-83" d="M107.9,196.6c-0.4,0-0.7-0.3-0.7-0.7c0-0.1,0-0.1,0-0.2c0.1-0.8,0.2-1.6,0.2-2.4c0-3.9-0.8-7.8-2.3-11.4&#10;&#9;&#9;c-1.8-4.2-4.2-8-7.3-11.3c-10.3-11.4-30.7-16.4-36-17.5c1.6,4.1,3.6,8,6.1,11.6l10.6,1.4c0.3,0,0.6,0.3,0.6,0.6&#10;&#9;&#9;c0,0.3-0.1,0.6-0.4,0.8l-8.2,3.4c1.5,2.3,6.3,9.4,10.4,11.9l10.5-2.4c0.3-0.1,0.7,0.1,0.8,0.4c0.2,0.3,0.1,0.7-0.2,0.9l-6.2,5.7&#10;&#9;&#9;c0.4,0.2,1,0.5,1.7,0.9c0.3,0.2,0.4,0.7,0.2,1c-0.2,0.3-0.6,0.4-0.9,0.3c-1.6-0.9-2.6-1.4-2.6-1.4c-0.2-0.1-0.3-0.3-0.3-0.6&#10;&#9;&#9;c0-0.2,0.1-0.5,0.2-0.6l4.9-4.5l-8.1,1.9c-0.2,0-0.4,0-0.5-0.1c-5.2-3-11.4-12.8-11.7-13.2c-0.1-0.2-0.1-0.4-0.1-0.6&#10;&#9;&#9;c0.1-0.2,0.2-0.4,0.4-0.4l6.5-2.8l-8.2-1.1c-0.2,0-0.4-0.1-0.5-0.3c-2.9-4.2-5.2-8.7-6.9-13.4c-0.1-0.2,0-0.5,0.1-0.7&#10;&#9;&#9;c0.2-0.2,0.4-0.3,0.7-0.2c1,0.2,25.9,4.8,38.1,18.2c3.2,3.4,5.7,7.4,7.5,11.7c1.6,3.8,2.4,7.9,2.4,12c0,0.9-0.1,1.8-0.2,2.6&#10;&#9;&#9;c0,0,0,0.1,0,0.1c0,0,0,0.1,0,0.1C108.5,196.4,108.2,196.6,107.9,196.6z"/>
	<path class="st0_advertising-5-83" d="M82.4,263.3h-0.1c-0.3-0.1-0.5-0.3-0.5-0.5c-0.1-0.2-6.8-24.8,1.7-43.8c2.5-5.7,6.1-10.9,10.6-15.2&#10;&#9;&#9;c6.9-6.6,13.3-8.5,13.6-8.6c0.2-0.1,0.4,0,0.6,0.1c0.2,0.1,0.3,0.3,0.3,0.5c1,7,0.9,14.1-0.4,21.1c0,0.2-0.2,0.5-0.5,0.5&#10;&#9;&#9;c-0.2,0.1-0.5,0-0.7-0.1l-4-3l3,5.9c0.1,0.1,0.1,0.3,0.1,0.4c-0.6,6.2-3.2,18.2-4.6,19.1c-0.2,0.1-0.5,0.2-0.7,0.1&#10;&#9;&#9;c-0.7-0.2-2-1.7-3.3-3.5l1.7,6.6c0.1,0.2,0,0.5-0.1,0.6L83,263C82.9,263.2,82.7,263.3,82.4,263.3z M107.3,196.9&#10;&#9;&#9;c-4.6,1.8-8.7,4.6-12.2,8c-4.4,4.2-7.9,9.2-10.3,14.8c-7.1,15.9-3.2,36-2,41.4l15-18.2l-2.6-10.5c-0.1-0.4,0.1-0.7,0.4-0.9&#10;&#9;&#9;c0.3-0.1,0.7,0,0.9,0.3c1.3,2.3,2.8,4.4,4.5,6.4c0.8-1.8,3-10.7,3.8-17.5l-4.4-8.6c-0.2-0.3-0.1-0.7,0.2-0.9c0.3-0.2,0.6-0.2,0.9,0&#10;&#9;&#9;l5.6,4.2C108,209.4,108.1,203.1,107.3,196.9z"/>
	<path class="st0_advertising-5-83" d="M60.6,211.8c-0.2,0-0.4-0.1-0.5-0.2c-0.2-0.2-0.2-0.4-0.2-0.6l0.7-4.6l-4.1,5c-0.2,0.2-0.4,0.3-0.6,0.3&#10;&#9;&#9;l-27.4-2.9c-0.3,0-0.5-0.2-0.6-0.5c-0.1-0.3,0-0.5,0.1-0.7c0.5-0.6,12.6-13.7,42-18.4c5.7-1,11.5-1.4,17.3-1.1&#10;&#9;&#9;c10,0.5,15.8,3.2,18.9,5.4c0.8,0.6,1.6,1.2,2.3,2c0.3,0.3,0.3,0.7,0,1c0,0,0,0,0,0c-0.3,0.3-0.7,0.3-1,0l0,0&#10;&#9;&#9;c-0.6-0.7-1.3-1.3-2-1.8c-2.4-1.7-7.9-4.6-18.1-5.1c-5.7-0.2-11.3,0.2-16.9,1.1c-24,3.9-36.5,13.7-40.1,16.9l25.5,2.6l5.6-6.8&#10;&#9;&#9;c0.2-0.3,0.7-0.4,1-0.1c0.2,0.2,0.3,0.4,0.3,0.7l-1,6.2l17-2.7l4.5-8.4c0.2-0.3,0.5-0.5,0.8-0.4c0.3,0.1,0.5,0.4,0.5,0.7L84,208&#10;&#9;&#9;c1.8-0.7,5.9-2.2,10.3-4.3c0.4-0.2,0.8,0,1,0.4c0.2,0.4,0.1,0.8-0.3,1c0,0,0,0-0.1,0c-6,2.8-11.4,4.7-11.5,4.7&#10;&#9;&#9;c-0.2,0.1-0.5,0-0.7-0.1c-0.2-0.1-0.3-0.4-0.3-0.6l0.4-6.5l-3.2,5.9c-0.1,0.2-0.3,0.3-0.5,0.4l-18.4,2.9L60.6,211.8z"/>
	<path class="st0_advertising-5-83" d="M107.9,196.6c-0.2,0-0.4-0.1-0.5-0.2c-0.2-0.2-0.3-0.5-0.2-0.8c0-0.2,0.2-0.6,0.4-1.2c0.1-0.1,0.1-0.3,0.2-0.4&#10;&#9;&#9;s0.2-0.6,0.4-1l0.1-0.3c3-7.6,14.5-26.2,24.3-33.5c12.2-9.1,26-12.4,29.3-13.1c-0.6-1.9-3.5-7.4-18-7.3c-5.3,8-5.5,8-6.1,7.8&#10;&#9;&#9;c-0.3-0.1-0.5-0.4-0.5-0.8c0-0.4,0-4.1,0-7c-2.7,0.6-11.2,2.9-17.5,9.6l0.6,6.8c0,0.3-0.1,0.5-0.3,0.7c-0.2,0.2-0.5,0.2-0.8,0&#10;&#9;&#9;l-4.3-2.7c-1.6,3.1-7.8,15.9-8.5,28.4c0,0.4-0.3,0.7-0.7,0.7c0,0,0,0-0.1,0c-0.4,0-0.7-0.4-0.7-0.8c0,0,0,0,0,0&#10;&#9;&#9;c0.9-14.7,9-29.6,9.1-29.8c0.1-0.2,0.3-0.3,0.4-0.4c0.2-0.1,0.4,0,0.6,0.1l3.7,2.4l-0.5-5.6c0-0.2,0-0.4,0.2-0.6&#10;&#9;&#9;c7.8-8.6,18.9-10.4,19.4-10.5c0.2,0,0.4,0,0.6,0.2c0.2,0.1,0.3,0.3,0.2,0.5c0,0.5,0,3.7,0,5.9c1.1-1.5,2.7-3.9,4.2-6.1&#10;&#9;&#9;c0.1-0.2,0.4-0.3,0.6-0.3c19.3-0.3,20,8.9,20,9.3c0,0.4-0.2,0.7-0.6,0.8c-10.6,2.2-20.7,6.6-29.4,13c-9.5,7.1-21,25.6-23.8,32.9&#10;&#9;&#9;l-0.1,0.3c-0.1,0.4-0.3,0.7-0.4,1c-0.1,0.1-0.1,0.3-0.2,0.4c-0.2,0.5-0.3,0.9-0.4,1C108.6,196.3,108.3,196.6,107.9,196.6z"/>
	<path class="st0_advertising-5-83" d="M108,196.6L108,196.6c-0.5,0-0.8-0.3-0.8-0.7c0-0.1,0-0.1,0-0.2c0,0,0,0,0-0.1c0-0.1,0.2-0.6,0.4-1.2&#10;&#9;&#9;c0.1-0.1,0.1-0.3,0.2-0.4l0.1-0.1c0.2-0.4,0.3-0.8,0.6-1.2c2.8-5.9,11.4-20.2,31.6-26.1c25.7-7.5,42.9-0.4,43-0.3&#10;&#9;&#9;c0.2,0.1,0.3,0.3,0.4,0.5c0.1,0.2,0,0.4-0.1,0.6c-3.3,4.4-7.7,8-12.6,10.4c-0.4,0.2-0.8,0.1-1-0.3c0,0,0,0,0,0l-2-4.1l-0.4,4.5&#10;&#9;&#9;c0,0.2-0.1,0.3-0.2,0.5c-0.2,0.2-4.4,3.8-14.4,4.8c-0.3,0-0.6-0.1-0.7-0.4l-3-6.6l-1.4,7.2c0,0.2-0.2,0.4-0.4,0.5&#10;&#9;&#9;c-0.4,0.2-10.9,4.7-17.5,5.5c-0.3,0-0.6-0.2-0.8-0.4l-0.9-2.2l-0.7,2.7c-0.1,0.4-0.6,0.6-0.9,0.4c-0.3-0.1-0.5-0.5-0.5-0.8l1.3-4.7&#10;&#9;&#9;c0.1-0.3,0.3-0.5,0.7-0.5c0.3,0,0.6,0.2,0.7,0.4l1.5,3.6c5.8-0.8,14.4-4.4,16.2-5.1l1.7-9.1c0.1-0.3,0.3-0.5,0.6-0.6&#10;&#9;&#9;c0.3,0,0.6,0.1,0.8,0.4l3.7,8.2c7.9-0.9,11.9-3.5,12.9-4.2l0.6-6.8c0-0.3,0.3-0.6,0.6-0.6c0.3-0.1,0.6,0.1,0.8,0.4l2.8,5.7&#10;&#9;&#9;c4.2-2.2,7.9-5.2,10.9-8.9c-3.8-1.3-19.2-5.7-41.2,0.7c-19.7,5.8-28,19.6-30.7,25.3l-0.6,1.2l-0.1,0.2c0,0.1-0.1,0.2-0.1,0.3&#10;&#9;&#9;c0,0,0,0.1,0,0.1c0.3,0,0.6,0.2,0.8,0.5c0.1,0.4-0.1,0.8-0.5,0.9c-0.1,0-0.2,0-0.3,0h-0.2h-0.2L108,196.6z"/>
	<path class="st0_advertising-5-83" d="M180,211.6c-0.2,0-0.4-0.1-0.5-0.2l-3.3-3.8v2.5c0,0.4-0.3,0.7-0.6,0.7c-3.8,0.4-7.7,0.2-11.5-0.7&#10;&#9;&#9;c-0.1,0-0.2-0.1-0.3-0.2l-4.7-5.2l0.9,3.8c0.1,0.2,0,0.5-0.1,0.6c-0.2,0.2-0.4,0.3-0.6,0.2c-0.2,0-5.2-0.6-20.3-7.6&#10;&#9;&#9;c-14.8-6.8-30.7-5.2-30.8-5.2c-0.3,0-0.7-0.2-0.8-0.5c-0.1-0.3,0-0.7,0.3-0.9c21.5-12.2,43.8-7.9,56.2-0.4c13.9,8.3,26.6,8,26.7,8&#10;&#9;&#9;c0.3,0,0.5,0.1,0.6,0.3c0.1,0.2,0.1,0.5,0,0.7c-3.4,6.3-10.7,7.6-11,7.6L180,211.6z M175.4,205c0.2,0,0.4,0.1,0.5,0.2l4.3,4.9&#10;&#9;&#9;c1.4-0.3,6.1-1.6,8.9-5.7c-9.3-0.6-18.3-3.4-26.2-8.2c-11.6-7-31.9-11.2-51.9-1.1c5.5-0.1,17.2,0.4,28.3,5.5s16.7,6.7,18.8,7.2&#10;&#9;&#9;l-1.4-5.5c-0.1-0.3,0.1-0.7,0.4-0.8c0.3-0.2,0.7-0.1,0.9,0.2l6.5,7.2c3.3,0.8,6.6,1,10,0.7v-3.7c0-0.3,0.2-0.6,0.5-0.7&#10;&#9;&#9;C175.2,205,175.3,205,175.4,205L175.4,205z"/>
	<path class="st0_advertising-5-83" d="M148.5,250.7c-0.1,0-0.2,0-0.2,0c-7.3-2.4-16.1-11.6-16.4-12c-0.1-0.1-0.2-0.3-0.2-0.5V232l-1.7,2.5&#10;&#9;&#9;c-0.1,0.2-0.4,0.3-0.6,0.3c-0.2,0-0.5-0.1-0.6-0.3l-7.3-11.6c-0.1-0.2-0.1-0.4-0.1-0.6l1.9-5.2l-1.8,1.1c-0.2,0.1-0.5,0.1-0.7,0.1&#10;&#9;&#9;c-0.2-0.1-0.4-0.3-0.4-0.5c-1.1-5.3-3.4-10.2-6.7-14.5c-1.8-2.5-3.9-4.7-6.2-6.7c-0.2-0.2-0.3-0.5-0.2-0.8c0.1-0.3,0.4-0.5,0.7-0.5&#10;&#9;&#9;l0,0c0.1,0,0.1,0,0.2,0h0.4h0.1c1.6-0.1,3.2-0.1,4.8,0c19.9,1.3,25.9,16.9,25.9,17.1c0.1,0.4,0,0.8-0.4,0.9l-4.1,1.8l6.7,2.1&#10;&#9;&#9;c0.2,0.1,0.4,0.2,0.4,0.4c7.5,15,7.3,32.5,7.3,32.6c0,0.2-0.1,0.4-0.3,0.6C148.8,250.7,148.7,250.7,148.5,250.7z M133.1,237.9&#10;&#9;&#9;c1.3,1.3,8.5,8.5,14.7,11c-0.1-3.9-0.8-18.1-7-30.7l-8.3-2.5c-0.3-0.1-0.5-0.3-0.5-0.6c0-0.3,0.2-0.6,0.4-0.7l5.3-2.3&#10;&#9;&#9;c-1.3-2.8-7.8-14.4-24.4-15.5c-1.1-0.1-2.3-0.1-3.6-0.1c1.9,1.8,3.6,3.7,5.1,5.8c3.2,4.2,5.5,9,6.7,14.1l2.7-1.7&#10;&#9;&#9;c0.3-0.2,0.6-0.1,0.8,0.1c0.2,0.2,0.3,0.5,0.2,0.8l-2.5,6.8l6.5,10.4l2.4-3.6c0.2-0.3,0.5-0.4,0.8-0.3c0.3,0.1,0.5,0.4,0.5,0.7&#10;&#9;&#9;L133.1,237.9z"/>
</g>
<g id="emoji_1_advertising-5-83">
	<path class="st1_advertising-5-83" d="M348.5,94.2v35.1c0,3.4,2.8,6.2,6.2,6.2c0,0,0,0,0,0h13.2l12.1,9.1l-2-9.1h13c3.4,0,6.2-2.8,6.2-6.2l0,0V94.2&#10;&#9;&#9;c0-3.4-2.8-6.2-6.2-6.2h-36.4C351.3,88,348.5,90.8,348.5,94.2C348.5,94.2,348.5,94.2,348.5,94.2z"/>
	<path class="st0_advertising-5-83" d="M380,145.4c-0.2,0-0.3-0.1-0.4-0.1l-12-8.9h-13c-3.8,0-7-3.2-7-7V94.2c0-3.8,3.1-6.9,7-6.9H391&#10;&#9;&#9;c3.8,0,6.9,3.1,7,6.9v35.1c0,3.8-3.1,7-6.9,7H379l1.8,8.2c0.1,0.3-0.1,0.6-0.3,0.8C380.3,145.4,380.2,145.4,380,145.4z M354.7,88.7&#10;&#9;&#9;c-3,0-5.5,2.5-5.5,5.5v35.1c0,3,2.5,5.5,5.5,5.5h13.2c0.2,0,0.3,0,0.4,0.1l10.6,7.9l-1.6-7.2c-0.1-0.4,0.2-0.8,0.5-0.9&#10;&#9;&#9;c0.1,0,0.1,0,0.2,0h13c3,0,5.5-2.5,5.5-5.5V94.2c0-3-2.5-5.5-5.5-5.5H354.7z"/>
	<path class="st2_advertising-5-83 targetColor" d="M374.2,127.2c0,0-16.8-10.8-16.5-21.2s9.3-9.5,12.4-7.9s5,5.6,5,5.6c1.3-3.5,4.5-6,8.3-6.2&#10;&#9;&#9;c6.5-0.3,9.2,5.6,4.5,15.8C385.1,119.4,380.3,124.3,374.2,127.2z" style="fill: rgb(105, 117, 101);"/>
</g>
<g id="emoji_2_advertising-5-83">
	<path class="st1_advertising-5-83" d="M416.7,83.2V107c0,2.3,1.9,4.2,4.2,4.2l0,0h9l0.2,12.9l6.6-12.9h8.8c2.3,0,4.2-1.9,4.2-4.2c0,0,0,0,0,0V83.2&#10;&#9;&#9;c0-2.3-1.9-4.2-4.3-4.2c0,0,0,0,0,0h-24.7C418.6,79,416.7,80.9,416.7,83.2z"/>
	<path class="st0_advertising-5-83" d="M430.1,124.9H430c-0.3-0.1-0.5-0.4-0.6-0.7l-0.3-12.2h-8.2c-2.7,0-5-2.3-5-5V83.2c0-2.7,2.2-5,5-5h24.7&#10;&#9;&#9;c2.8,0,5,2.2,5,5V107c0,2.8-2.2,5-5,5h-8.4l-6.5,12.5C430.6,124.8,430.4,124.9,430.1,124.9z M420.9,79.7c-1.9,0-3.5,1.6-3.5,3.5&#10;&#9;&#9;V107c0,1.9,1.6,3.5,3.5,3.5h9c0.4,0,0.7,0.3,0.7,0.7c0,0,0,0,0,0l0.2,10.1l5.3-10.4c0.1-0.2,0.4-0.4,0.6-0.4h8.8&#10;&#9;&#9;c1.9,0,3.5-1.6,3.5-3.5V83.2c0-1.9-1.6-3.5-3.5-3.5H420.9z"/>
	<path class="st2_advertising-5-83 targetColor" d="M434.1,105.6c0,0-11.4-7.3-11.1-14.4s6.3-6.4,8.4-5.3c1.4,0.9,2.6,2.2,3.4,3.8c0.9-2.4,3.1-4.1,5.6-4.2&#10;&#9;&#9;c4.4-0.2,6.2,3.8,3.1,10.7C441.6,100.3,438.3,103.6,434.1,105.6z" style="fill: rgb(105, 117, 101);"/>
</g>
<g id="Character_advertising-5-83">
	<path class="st3_advertising-5-83" d="M254.1,100.2c-8.5,4.1-14.5,11.9-16.4,21.2c-0.6,2.6-0.6,5.2-0.1,7.8c1.7,7.1,9.2,11.7,16.5,11.8&#10;&#9;&#9;c7.3,0.1,14.2-3.3,20-7.7c7.4-5.5,16.5-18.1,11.7-28C280.9,95.1,262.4,96.2,254.1,100.2z"/>
	<path class="st3_advertising-5-83" d="M254.5,141.8H254c-8.2-0.1-15.6-5.5-17.2-12.4c-0.6-2.7-0.5-5.5,0.1-8.1c2-9.4,8.2-17.4,16.8-21.7&#10;&#9;&#9;c8.6-4.1,27.6-5.2,32.7,5.5c4.9,10.2-4,23-12,28.9C267.5,139.1,260.8,141.8,254.5,141.8z M268.5,98c-4.9,0-9.7,0.9-14.1,2.9l0,0&#10;&#9;&#9;c-8.2,4.1-14.1,11.7-16,20.7c-0.6,2.5-0.6,5-0.1,7.5c1.7,7.2,9.4,11.2,15.8,11.3c6.1,0.1,12.7-2.4,19.6-7.5&#10;&#9;&#9;c7.3-5.4,16-17.8,11.5-27.1C282.5,100.1,275.5,98,268.5,98z M254.1,100.2L254.1,100.2z"/>
	<path class="st3_advertising-5-83" d="M237,169.6c-5.5,0.1-11.3,0.1-16.3-2.2c-8.6-3.9-10.3-12.6-5.2-20.1c15.2-22.5,41.5-34.4,66.5-44.9&#10;&#9;&#9;c10-4.2,22.2-8.1,30.9-1.7c6.9,5.1,8.5,15.4,5.6,23.5s-9.3,14.5-16,20c-22.7,18.6-53.7,30.4-81.8,21.9c-0.2,2-5.4-1.8-3.7-0.7&#10;&#9;&#9;c1.7,1,3.6,1.7,5.6,2c10,2.1,20.3,2.2,30.3,0.5"/>
	<path class="st3_advertising-5-83" d="M234.5,170.4c-4.6,0-9.6-0.3-14.1-2.3c-0.9-0.4-1.7-0.8-2.5-1.4c-0.6-0.3-1.1-0.6-1.6-0.9l-0.1-0.1l0,0&#10;&#9;&#9;c-0.1-0.1-0.2-0.2-0.3-0.3c0-0.1-0.1-0.2-0.1-0.3c-1.7-1.6-2.9-3.6-3.5-5.8c-1.1-4-0.2-8.4,2.5-12.4c15-22.1,40.2-34,66.8-45.2&#10;&#9;&#9;c10.6-4.5,22.7-8.2,31.6-1.6c7.5,5.6,8.6,16.5,5.9,24.3c-3.1,8.8-10.3,15.4-16.2,20.3c-15.7,12.9-33,21-49.9,23.8h-0.1&#10;&#9;&#9;c-5,0.9-10.1,1.3-15.2,1.2c0,0.4-0.3,0.6-0.7,0.6L234.5,170.4z M220.7,165.3h0.2c25,7.6,55.3-0.6,81.1-21.7&#10;&#9;&#9;c5.8-4.7,12.7-11.2,15.7-19.6c2.6-7.4,1.6-17.5-5.3-22.7c-8.3-6.1-19.9-2.6-30.1,1.8c-26.4,11.1-51.4,22.9-66.2,44.7&#10;&#9;&#9;c-2.5,3.7-3.3,7.6-2.3,11.2c0.8,2.7,2.5,4.9,4.8,6.4c0.4,0.2,0.9,0.4,1.4,0.5l0,0c0-0.2,0.1-0.3,0.3-0.4&#10;&#9;&#9;C220.4,165.3,220.5,165.3,220.7,165.3z"/>
	<path class="st1_advertising-5-83" d="M365.5,228.7c0,0,13.3-1.8,18.2-8.4s12.2-10.3,14-9.2s4.3,11.9,3.3,13.2s-32.2,21.6-32.9,21.9"/>
	<path class="st3_advertising-5-83" d="M368.1,246.9c-0.3,0-0.5-0.2-0.7-0.4c-0.2-0.4,0-0.8,0.3-1c0,0,0,0,0.1,0c1.8-0.9,31.5-20.4,32.7-21.6&#10;&#9;&#9;c0.6-1.2-1.6-11.2-3.1-12.1c-1.3-0.8-8.2,2.4-13.1,9c-5,6.8-18.1,8.6-18.6,8.7c-0.4,0.1-0.7-0.2-0.8-0.6c0,0,0,0,0,0&#10;&#9;&#9;c-0.1-0.4,0.2-0.8,0.6-0.8c0,0,0,0,0,0c0.1,0,13-1.9,17.7-8.1c4.8-6.6,12.5-10.9,15-9.4c2,1.2,3.4,8.4,3.5,8.7&#10;&#9;&#9;c0.6,3,0.6,4.8,0.1,5.5c-1.1,1.5-33,22-33.2,22.1C368.3,246.8,368.2,246.9,368.1,246.9z"/>
	<path class="st3_advertising-5-83" d="M399,204.3L399,204.3c1,0.4,1.5,1.6,1.1,2.6l-12.9,31.7c-0.4,1-1.6,1.5-2.6,1.1l0,0c-1-0.4-1.5-1.6-1.1-2.6&#10;&#9;&#9;l12.9-31.7C396.8,204.4,398,203.9,399,204.3z"/>
	<path class="st3_advertising-5-83" d="M385.4,240.5c-0.3,0-0.7-0.1-1-0.2l0,0c-1.4-0.6-2-2.1-1.5-3.5l12.9-31.7c0.5-1.4,2.1-2.1,3.5-1.5&#10;&#9;&#9;c0.7,0.3,1.2,0.8,1.5,1.5c0.3,0.7,0.3,1.4,0,2.1l-12.9,31.7C387.5,239.9,386.5,240.5,385.4,240.5L385.4,240.5z M384.9,239&#10;&#9;&#9;c0.3,0.1,0.7,0.1,1,0c0.3-0.1,0.5-0.4,0.7-0.7l12.9-31.7c0.1-0.3,0.1-0.7,0-1c-0.3-0.6-1-1-1.6-0.7c-0.3,0.1-0.6,0.4-0.7,0.7&#10;&#9;&#9;l-12.9,31.7C384,237.9,384.3,238.7,384.9,239C384.9,238.9,384.9,238.9,384.9,239L384.9,239z"/>
	
		<rect x="385" y="182.6" transform="matrix(0.3782 -0.9257 0.9257 0.3782 83.2729 491.4121)" class="st3_advertising-5-83" width="44.8" height="2.3"/>
	<path class="st3_advertising-5-83" d="M400,205.6c-0.1,0-0.2,0-0.3-0.1l-2.1-0.9c-0.2-0.1-0.3-0.2-0.4-0.4c-0.1-0.2-0.1-0.4,0-0.6l16.9-41.5&#10;&#9;&#9;c0.1-0.2,0.2-0.3,0.4-0.4c0.2-0.1,0.4-0.1,0.5,0l2.1,0.9c0.4,0.1,0.5,0.6,0.4,0.9c0,0,0,0,0,0l-16.9,41.5&#10;&#9;&#9;C400.6,205.4,400.3,205.6,400,205.6z M398.9,203.6l0.8,0.3l16.4-40.1l-0.8-0.3L398.9,203.6z"/>
	<path class="st1_advertising-5-83" d="M395.5,212.3c-0.3,0-0.6,0.1-0.8,0.2c-0.6,0.5-0.7,1.3-0.2,1.9c0.4,0.6,1,1,1.7,1.2c-0.6-0.2-1.1-0.2-1.7-0.1&#10;&#9;&#9;c-0.6,0.1-1,0.6-1,1.2c0.1,1,1.6,1.1,2.2,1.9c-0.5-0.2-1.1-0.3-1.7-0.3c-0.6,0-1.1,0.3-1.4,0.8c-0.3,0.7-0.1,1.5,0.4,2&#10;&#9;&#9;c0.5,0.5,1.2,0.9,1.9,1.1c-1-0.2-2.4,0-2.8,1s0.4,1.9,1.2,2.5c1.2,0.9,2.6,1.4,4,1.5c1.1,0.2,2.3-0.1,3.2-0.9c0.5-0.5,0.8-1,1-1.6&#10;&#9;&#9;c0.9-2.1,1.5-4.3,1.7-6.6c0.2-1.7,0.1-4.2-1.6-5.1C399.6,212.3,397.5,212,395.5,212.3z"/>
	<path class="st3_advertising-5-83" d="M397.7,228.1h-0.6c-1.6-0.1-3.1-0.7-4.4-1.6c-1-0.8-2-2-1.5-3.3c0.2-0.6,0.6-1,1.2-1.3l-0.1-0.1&#10;&#9;&#9;c-0.7-0.8-0.9-1.9-0.5-2.9c0.3-0.5,0.8-0.9,1.4-1.1c-0.3-0.3-0.4-0.6-0.5-1c-0.1-0.8,0.4-1.6,1.2-1.9l-0.1-0.1&#10;&#9;&#9;c-0.3-0.5-0.4-1.1-0.3-1.8c0.1-0.5,0.4-0.9,0.8-1.1c0.3-0.2,0.7-0.3,1.1-0.3l0,0c2.2-0.2,4.4,0.1,6.4,0.9c1.6,0.9,2.3,2.9,2,5.8&#10;&#9;&#9;c-0.2,2.4-0.8,4.7-1.8,6.9c-0.3,0.7-0.7,1.3-1.2,1.9C400,227.7,398.8,228.1,397.7,228.1z M393.9,223c-0.6,0-1.2,0.2-1.3,0.6&#10;&#9;&#9;s0.4,1.2,1,1.7c1.1,0.8,2.4,1.3,3.7,1.4c0.9,0.1,1.9-0.1,2.6-0.7c0.4-0.4,0.7-0.9,0.9-1.4c0.9-2,1.5-4.2,1.7-6.4&#10;&#9;&#9;c0.1-1.3,0.1-3.7-1.3-4.4c-1.8-0.7-3.7-0.9-5.6-0.7l0,0c-0.2,0-0.3,0-0.5,0.1c-0.1,0.1-0.1,0.1-0.1,0.2c0,0.2,0,0.5,0.1,0.6&#10;&#9;&#9;c0.4,0.4,0.9,0.8,1.4,1c0.4,0.2,0.5,0.6,0.3,1c-0.2,0.3-0.5,0.4-0.8,0.4c-0.4-0.1-0.9-0.2-1.4-0.1c-0.3,0.1-0.5,0.3-0.5,0.4&#10;&#9;&#9;s0.3,0.4,0.8,0.6c0.5,0.2,0.9,0.6,1.3,1c0.2,0.3,0.1,0.8-0.2,1c-0.2,0.1-0.4,0.2-0.6,0.1c-0.5-0.2-1-0.2-1.5-0.2&#10;&#9;&#9;c-0.3,0-0.7,0.2-0.9,0.4c-0.1,0.4,0,0.9,0.3,1.2c0.5,0.4,1,0.7,1.6,0.9c0.4,0.1,0.6,0.5,0.4,0.9c-0.1,0.4-0.5,0.5-0.9,0.4&#10;&#9;&#9;C394.3,223,394.1,223,393.9,223z M395.5,212.3L395.5,212.3z"/>
	<path class="st1_advertising-5-83" d="M261.7,354.2c0,0-42.3,28.2-87.3,30.9l-11-19.1l81.5-39.4L261.7,354.2z"/>
	<path class="st3_advertising-5-83" d="M174.4,385.9c-0.3,0-0.5-0.1-0.6-0.4l-11-19.1c-0.1-0.2-0.1-0.4-0.1-0.6c0.1-0.2,0.2-0.4,0.4-0.4l81.5-39.4&#10;&#9;&#9;c0.3-0.2,0.7,0,0.9,0.3l16.8,27.5c0.2,0.3,0.1,0.8-0.2,1C261.6,355.1,219.1,383.2,174.4,385.9L174.4,385.9z M164.4,366.4l10.4,18.1&#10;&#9;&#9;c41.3-2.6,80.7-27,85.9-30.4l-16.1-26.4L164.4,366.4z"/>
	<path class="st1_advertising-5-83" d="M314.3,347.6c0,0,31.5,44.9,53.9,58.8l11.9-11.2c0,0-38.7-77.6-52.5-79.6C311,313.1,303.9,355,314.3,347.6z"/>
	<path class="st3_advertising-5-83" d="M368.2,407.1c-0.1,0-0.3,0-0.4-0.1c-20.9-13-49.9-53.2-53.7-58.5c-1.8,1-3,0.6-3.6,0.1&#10;&#9;&#9;c-3.2-2.6-1.7-13.5,1.8-21.5c3.8-8.7,9.5-13.2,15.4-12.3s16.7,14.7,32,41c11.3,19.4,21,38.9,21.1,39.1c0.1,0.3,0.1,0.6-0.1,0.9&#10;&#9;&#9;l-11.9,11.2C368.6,407.1,368.4,407.2,368.2,407.1z M314.3,346.9h0.1c0.2,0,0.4,0.1,0.5,0.3c0.3,0.5,31.2,44.3,53.2,58.3l11.1-10.5&#10;&#9;&#9;c-1.6-3.1-10.5-20.8-20.8-38.5c-18.7-32.2-27.1-39.7-30.9-40.2c-7.4-1.1-12.2,7.6-13.8,11.5c-3.8,8.5-4.4,18-2.2,19.8&#10;&#9;&#9;c0.6,0.5,1.4,0.3,2.5-0.5C314,346.9,314.2,346.9,314.3,346.9L314.3,346.9z"/>
	<path class="st3_advertising-5-83" d="M359.6,402.3L376,421l11.8-10.9l-2-1.8c1.5-1,3-1.9,4.6-2.8c2.9-1.6,14.2-15,14.2-15s-1.9-5.9-9.3-3.2&#10;&#9;&#9;s-8.5,9.1-10.7,9.4s-8.7-11.7-8.7-10.9S359.6,402.3,359.6,402.3z"/>
	<path class="st3_advertising-5-83" d="M376,421.8L376,421.8c-0.2,0-0.4-0.1-0.5-0.2L359,402.8c-0.3-0.3-0.2-0.7,0-1c5.9-5.6,15.4-14.9,16.1-16.1&#10;&#9;&#9;c0.1-0.2,0.3-0.4,0.5-0.5c0.6-0.2,0.7,0,2.4,2.6c1.3,2,5.2,8.2,6.4,8.3c0.5-0.1,1.1-1,1.9-2.1c2-3.3,5-5.9,8.6-7.3&#10;&#9;&#9;c2.7-1,5.1-1,7-0.1c1.5,0.8,2.7,2.1,3.3,3.7c0.1,0.2,0,0.5-0.1,0.7c-0.5,0.5-11.4,13.6-14.4,15.2c-1.7,0.9-3,1.7-3.8,2.2l1.3,1.1&#10;&#9;&#9;c0.3,0.3,0.3,0.7,0,1c0,0,0,0,0,0l-11.8,10.9C376.4,421.7,376.2,421.8,376,421.8z M360.5,402.4l15.6,17.6l10.6-9.8l-1.4-1.2&#10;&#9;&#9;c-0.3-0.3-0.3-0.7-0.1-1c0,0,0.1-0.1,0.1-0.1c1.5-1,3.1-2,4.7-2.8c2.2-1.2,10.4-10.6,13.7-14.5c-0.5-1.1-1.4-2-2.4-2.5&#10;&#9;&#9;c-1.5-0.8-3.5-0.7-5.8,0.1c-3.4,1.3-6.2,3.6-8,6.7c-1,1.4-1.8,2.5-2.9,2.7c-1.7,0.2-3.9-2.9-7.8-9l-1-1.5&#10;&#9;&#9;C374.6,388.6,370.9,392.4,360.5,402.4L360.5,402.4z"/>
	<path class="st3_advertising-5-83" d="M174.4,385.2c-0.6-0.4-12.2-19.5-12.2-19.5l-22.3,13.5c0,0,4.8,9.9,6.1,10c0.8,0.1,1.6-0.1,2.3-0.4&#10;&#9;&#9;c0,0-0.7,3.1,0.8,5.2s10.6,15.9,12.8,15s-1.6-14,1.7-17.9S174.4,385.2,174.4,385.2z"/>
	<path class="st3_advertising-5-83" d="M161.8,409.7c-1.5,0-4.4-2.4-12.7-14.6l-0.5-0.7c-0.8-1.4-1.2-3-1.1-4.6c-0.5,0.1-1,0.1-1.5,0.1&#10;&#9;&#9;c-1.1-0.1-3.4-3.6-6.7-10.4c-0.2-0.3-0.1-0.7,0.3-0.9l22.3-13.5c0.2-0.1,0.4-0.1,0.6-0.1c0.2,0,0.4,0.2,0.4,0.3&#10;&#9;&#9;c4.3,7.1,11.3,18.6,12,19.4c0.2,0.1,0.4,0.4,0.3,0.7c-0.1,0.3-0.3,0.5-0.6,0.6c-0.1,0-7.2,2-10.3,5.7c-1.6,1.9-1.3,6.8-1,10.8&#10;&#9;&#9;s0.5,6.7-1,7.3C162.1,409.7,161.9,409.7,161.8,409.7z M148.4,388c0.2,0,0.3,0.1,0.4,0.1c0.2,0.2,0.3,0.4,0.3,0.7&#10;&#9;&#9;c0,0-0.6,2.9,0.7,4.7l0.5,0.8c8.8,12.9,11,14,11.5,14l0,0c0.5-0.4,0.2-3.7,0.1-5.8c-0.3-4.4-0.7-9.4,1.3-11.8&#10;&#9;&#9;c2.7-3.2,7.9-5.1,10.1-5.9c-1.1-1.7-4-6.1-11.2-18.2l-21.1,12.8c2.1,4.1,4.6,8.6,5.4,9c0.6,0,1.2-0.1,1.8-0.3&#10;&#9;&#9;C148.1,388.1,148.2,388,148.4,388z"/>
	<path class="st2_advertising-5-83 targetColor" d="M301.4,175.4c0,0,26.4,56.3,37.6,55s30.8-7,30.8-7l6.4,22.6c0,0-17.1,17.4-44.9,9.8s-40.1-41.7-40.1-41.7&#10;&#9;&#9;L301.4,175.4z" style="fill: rgb(105, 117, 101);"/>
	<path class="st1_advertising-5-83" d="M294.7,123.9c-4.9-6.3-12.7-10.4-20.7-9.6c-10.9,1.2-16,3.2-24.6,10.7c-12.4,10.8-27.9,17.3-44.2,18.8&#10;&#9;&#9;c-6.1,0.5-12.4,0.3-18.1,2.6c-11.5,4.6-17.3,18.5-15.5,30.8s9.7,22.9,18.8,31.3c4.2,4,8.9,7.4,14,10.1c19.5,10,44.6,4.2,61.1-10.3&#10;&#9;&#9;c11.5-10.1,19.2-23.7,24-38.1c2.1-6.5,3.6-12.6,6.6-18.8c3.3-6.7,5-13.1,2.4-20.6C297.5,128.3,296.3,126,294.7,123.9z"/>
	<path class="st3_advertising-5-83" d="M225.8,224.3c-7.6,0.1-15.1-1.6-21.8-5c-5.2-2.8-9.9-6.2-14.1-10.3c-11-10.2-17.5-20.8-19.1-31.7&#10;&#9;&#9;c-1.7-11.6,3.3-26.6,16-31.6c4.5-1.8,9.4-2.1,14.2-2.4c1.4-0.1,2.7-0.2,4.1-0.3c16.2-1.4,31.6-7.9,43.8-18.6&#10;&#9;&#9;c8.5-7.4,13.6-9.6,25-10.8c7.9-0.8,16,2.9,21.3,9.8l0,0c1.6,2.1,2.9,4.5,3.8,7.1c2.9,8.4,0.4,15.4-2.4,21.1&#10;&#9;&#9;c-2,4.3-3.7,8.8-4.9,13.4c-0.5,1.7-1.1,3.5-1.7,5.3c-5.2,15.8-13.6,29.1-24.2,38.4C254.8,218.6,240.6,224.1,225.8,224.3z&#10;&#9;&#9; M276.1,115c-0.7,0-1.3,0-2,0.1c-11,1.2-16,3.3-24.2,10.5c-12.5,10.9-28.1,17.5-44.7,19c-1.4,0.1-2.7,0.2-4.1,0.3&#10;&#9;&#9;c-4.6,0.3-9.4,0.6-13.8,2.3c-12,4.8-16.7,19-15.1,30c1.6,10.5,7.8,20.9,18.6,30.9c4.1,4,8.8,7.3,13.8,10&#10;&#9;&#9;c18.1,9.3,42.9,5.1,60.2-10.2c10.4-9.1,18.6-22.2,23.8-37.8c0.6-1.8,1.1-3.5,1.6-5.3c1.3-4.7,2.9-9.2,5-13.6&#10;&#9;&#9;c2.7-5.4,5.1-12.1,2.3-20c-0.8-2.4-2.1-4.7-3.6-6.7C289.9,118.7,283.2,115.2,276.1,115z"/>
	<path class="st2_advertising-5-83 targetColor" d="M303.6,168.5c-0.8-1.3-49.3-15-64.4-0.8s-5.4,92.3-5.4,92.3s22.4,7,40.2,1.4s20.1-12.2,20.1-12.2&#10;&#9;&#9;S326.4,204.5,303.6,168.5z" style="fill: rgb(105, 117, 101);"/>
	<path class="st3_advertising-5-83" d="M294.2,249.1l54.3,74.7c0.2,0-19.1,38.6-59.4,41.9c-70.1,5.7-78.6-22.3-78.6-22.3l22.9-87.6&#10;&#9;&#9;C233.3,255.7,279.6,261.6,294.2,249.1z"/>
	<path class="st3_advertising-5-83" d="M271,367.1c-53.4,0-61-22.5-61.3-23.6c0-0.1,0-0.3,0-0.4l22.9-87.6c0.1-0.4,0.4-0.6,0.8-0.5&#10;&#9;&#9;c0.5,0.1,46.1,5.7,60.3-6.5c0.2-0.1,0.4-0.2,0.6-0.2c0.2,0,0.4,0.1,0.5,0.3l54.3,74.7c0.1,0.2,0.2,0.5,0.1,0.7&#10;&#9;&#9;c-0.2,0.4-19.7,39-60,42.2C282.6,366.9,276.5,367.1,271,367.1z M211.1,343.3c0.9,2.4,12.2,26.9,77.8,21.6&#10;&#9;&#9;c37.9-3.1,56.8-37.4,58.6-41L294,250.1c-14.4,11.3-54.4,7.1-60.2,6.4L211.1,343.3z"/>
	<path class="st3_advertising-5-83" d="M303.6,168.5c0,0-37.6,92.2-47.6,96.1s-43.9-1.5-40-6.7s16.4-15.7,16.4-15.7l-1.2-13.6&#10;&#9;&#9;c0,0-55.8,51.8-51.6,63.5s59.2,28.2,67.3,22s52.7-107.6,56.8-122.7s6.8-18.2,5.4-21.1S303.6,168.5,303.6,168.5z"/>
	<path class="st3_advertising-5-83" d="M240.3,316.2c-7.2,0-17.7-2.3-26.5-5c-14.6-4.4-32.5-11.9-35-18.9c-1.8-5.1,6.4-17.5,24.4-36.9&#10;&#9;&#9;c13.3-14.3,27.3-27.3,27.4-27.4c0.2-0.2,0.5-0.2,0.8-0.1c0.3,0.1,0.4,0.3,0.5,0.6l1.2,13.6c0,0.2-0.1,0.5-0.3,0.6&#10;&#9;&#9;c-0.1,0.1-12.5,10.5-16.2,15.6c-0.2,0.3-0.2,0.7,0,0.9c0,0,0,0,0,0c3.2,4.2,30.2,8.2,39.1,4.7c7.9-3.1,36.7-70.1,47.2-95.7&#10;&#9;&#9;c0.1-0.2,0.3-0.4,0.5-0.4c1.5-0.5,4.9-0.6,6.2,2.2c1,2,0.3,4.1-1.2,8.5c-1,3-2.5,7.1-4.1,13.1c-2,7.4-13.8,35.8-26.9,64.8&#10;&#9;&#9;c-7.3,16.2-24.9,54.3-30.1,58.3C245.9,315.7,243.4,316.2,240.3,316.2z M230.6,230.1c-16.1,15.1-53.5,52.7-50.4,61.8&#10;&#9;&#9;c1.8,5.2,15.8,12.6,34,18c15.6,4.7,28.9,6.2,32.2,3.7c7.7-5.9,52.1-106.2,56.5-122.3c1.6-6.1,3.1-10.2,4.1-13.2&#10;&#9;&#9;c1.5-4.2,2-5.9,1.3-7.4c-1-1.9-3.3-1.7-4.2-1.5c-2.9,7.1-37.9,92.3-47.8,96.2c-8.8,3.4-37-0.2-40.8-5.2c-0.7-0.7-0.7-1.9-0.1-2.6&#10;&#9;&#9;c3.6-4.9,14.2-14,16.2-15.6L230.6,230.1z"/>
	<path class="st1_advertising-5-83" d="M241.3,315.1c-7-0.1-14.1-0.8-21-2c-0.4,0-0.7-0.4-0.6-0.8c0-0.4,0.4-0.7,0.8-0.6c0,0,0.1,0,0.1,0&#10;&#9;&#9;c0.1,0,15.3,2.9,26.2,1.8c8.7-0.9,23.7-40.9,28.7-56.2c0.1-0.4,0.5-0.6,0.9-0.5c0,0,0,0,0,0c0.4,0.1,0.6,0.5,0.5,0.9c0,0,0,0,0,0&#10;&#9;&#9;c-0.7,2.3-18.5,56-29.9,57.2C245.2,315,243.3,315.1,241.3,315.1z"/>
	<path class="st1_advertising-5-83" d="M280.9,165.3l-0.4,12.8c0,0-1.9,5.8-10.4,3.5s-9.6-8.2-9.6-8.2l1.7-23.8c0,0,13.6-6.8,12.1-20.6&#10;&#9;&#9;c0,0,4.9,10.9,17.6,9.7c0,0-0.1,12.3-1.4,18.9S280.9,165.3,280.9,165.3z"/>
	<path class="st3_advertising-5-83" d="M273.7,182.8c-1.3,0-2.6-0.2-3.9-0.6c-8.8-2.4-10.1-8.5-10.1-8.8c0-0.1,0-0.1,0-0.2l1.7-23.8&#10;&#9;&#9;c0-0.3,0.2-0.5,0.4-0.6c0.1-0.1,13.1-6.7,11.7-19.8c-0.1-0.4,0.2-0.8,0.6-0.8c0.3,0,0.6,0.1,0.8,0.4c3.1,6.4,9.9,10.1,16.9,9.2&#10;&#9;&#9;c0.2,0,0.4,0,0.6,0.2c0.2,0.1,0.2,0.3,0.2,0.6c0,0.5-0.2,12.4-1.4,19c-1.1,6-7.6,7.8-9.7,8.2l-0.4,12.2c0,0.1,0,0.1,0,0.2&#10;&#9;&#9;C281.1,178.4,279.6,182.8,273.7,182.8z M261.2,173.3c0.2,0.7,1.6,5.5,9,7.6c7.2,1.9,9.2-2.2,9.4-2.9l0.4-12.7&#10;&#9;&#9;c0-0.4,0.3-0.6,0.6-0.7c0.1,0,8-1.2,9-7.2c1-5.5,1.3-15.1,1.3-17.9c-6.3,0.5-12.5-2.5-16.1-7.7c-0.4,11-10.2,17.1-12.2,18.3&#10;&#9;&#9;L261.2,173.3z M280.4,178.1L280.4,178.1z"/>
	<path class="st1_advertising-5-83" d="M266.2,149c-0.3-1.2-0.9-2.2-1.8-3c-0.9-0.7-1.9-1.2-3-1.6c-0.6-0.3-1.2-0.4-1.8-0.4c-0.4,0.1-0.8,0.2-1.2,0.4&#10;&#9;&#9;c-0.9,0.4-1.7,1.2-2.1,2.1c-0.3,0.8-0.3,1.6-0.2,2.4c0.1,0.9,0.3,1.8,0.6,2.6c1.4,3.5,5.3,5.2,8.8,3.8c0,0,0.1,0,0.1,0"/>
	<path class="st3_advertising-5-83" d="M263,156.6c-3.1,0-5.9-1.9-7-4.7c-0.3-0.9-0.5-1.8-0.6-2.8c-0.2-0.9-0.1-1.9,0.2-2.8c0.5-1.1,1.4-2,2.5-2.5&#10;&#9;&#9;c0.5-0.3,1-0.4,1.5-0.5c0.7,0,1.5,0.1,2.1,0.4c1.1,0.4,2.2,1,3.2,1.7c1,0.9,1.8,2.1,2,3.4c0,0.4-0.2,0.8-0.6,0.8&#10;&#9;&#9;c-0.3,0-0.7-0.2-0.8-0.5c-0.2-1-0.8-2-1.6-2.6c-0.8-0.6-1.7-1.1-2.7-1.5c-0.5-0.2-1-0.3-1.5-0.3c-0.4,0-0.7,0.2-1,0.3&#10;&#9;&#9;c-0.7,0.4-1.3,1-1.7,1.7c-0.2,0.7-0.3,1.4-0.1,2.1c0.1,0.8,0.3,1.6,0.5,2.4c1.2,3.1,4.7,4.6,7.8,3.4c0,0,0.1,0,0.1-0.1&#10;&#9;&#9;c0.4-0.2,0.8,0,0.9,0.4c0,0,0,0,0,0c0.2,0.4,0,0.8-0.3,1c0,0,0,0-0.1,0C265,156.4,264,156.6,263,156.6z"/>
	<path class="st1_advertising-5-83" d="M280.9,144.6c0,0,4.5,6.6,3.5,7.8s-4,0.4-4,0.4"/>
	<path class="st3_advertising-5-83" d="M282.3,153.8c-0.7,0-1.4-0.1-2.1-0.2c-0.4-0.1-0.6-0.5-0.5-0.9c0,0,0,0,0,0c0.1-0.4,0.5-0.6,0.9-0.5&#10;&#9;&#9;c0.8,0.2,2.8,0.4,3.3-0.2c0.2-0.6-1.5-3.9-3.5-6.9c-0.2-0.4-0.1-0.8,0.3-1c0.3-0.2,0.7-0.1,0.9,0.2c2.2,3.2,4.6,7.4,3.4,8.7&#10;&#9;&#9;C284.2,153.6,283.2,153.9,282.3,153.8z"/>
	<path class="st1_advertising-5-83" d="M284.6,155.9c0,0-8.3-1.1-12.5-5c0,0-1,7,4.8,8.7C280,160.5,283.4,158.9,284.6,155.9z"/>
	<path class="st3_advertising-5-83" d="M278.9,160.6c-0.8,0-1.6-0.1-2.3-0.3c-5-1.4-5.7-6.8-5.3-9.5c0-0.3,0.2-0.5,0.5-0.6c0.3-0.1,0.5,0,0.7,0.1&#10;&#9;&#9;c4,3.6,12.1,4.8,12.1,4.8c0.2,0,0.4,0.2,0.5,0.4c0.1,0.2,0.1,0.4,0.1,0.6C285.2,156.1,283.5,160.6,278.9,160.6z M272.7,152.3&#10;&#9;&#9;c0,2,0.6,5.5,4.3,6.5c2.5,0.9,5.2-0.1,6.5-2.4C281.4,156,276.3,154.9,272.7,152.3z"/>
	<path class="st1_advertising-5-83" d="M273.8,141.8c0,0,0.9-2.3,4.5,1"/>
	<path class="st3_advertising-5-83" d="M278.3,143.5c-0.2,0-0.4-0.1-0.5-0.2c-1.8-1.6-2.6-1.6-2.9-1.6c-0.2,0-0.3,0.1-0.4,0.3c-0.2,0.4-0.6,0.6-1,0.4&#10;&#9;&#9;c0,0,0,0,0,0c-0.4-0.1-0.5-0.6-0.4-0.9c0.2-0.6,0.8-1,1.4-1.2c1.1-0.3,2.6,0.4,4.2,1.9c0.3,0.3,0.3,0.7,0.1,1&#10;&#9;&#9;C278.6,143.5,278.4,143.5,278.3,143.5L278.3,143.5z"/>
	<path class="st1_advertising-5-83" d="M284.6,143.4c0,0,2-3.5,4.5,0"/>
	<path class="st3_advertising-5-83" d="M289.1,144.1c-0.2,0-0.5-0.1-0.6-0.3c-0.4-0.6-1-1.1-1.8-1.2c-0.7,0-1.4,0.9-1.5,1.2c-0.2,0.3-0.6,0.5-1,0.3&#10;&#9;&#9;c-0.3-0.2-0.5-0.6-0.3-1c0.6-1,1.6-1.7,2.7-1.9c1.1-0.1,2.1,0.6,3,1.8c0.2,0.3,0.2,0.8-0.2,1c0,0,0,0,0,0&#10;&#9;&#9;C289.4,144.1,289.2,144.1,289.1,144.1z"/>
	<path class="st3_advertising-5-83" d="M280.9,165.3c0,0-6.6-0.4-9.6-2.4c0,0,2.1,7.7,9.2,10L280.9,165.3z"/>
	<path class="st3_advertising-5-83" d="M280.5,173.7c-0.1,0-0.2,0-0.2,0c-7.4-2.4-9.6-10.2-9.7-10.5c-0.1-0.4,0.1-0.8,0.5-0.9c0.2-0.1,0.4,0,0.6,0.1&#10;&#9;&#9;c2.8,1.9,9.2,2.2,9.2,2.2c0.4,0,0.7,0.4,0.7,0.8c0,0,0,0,0,0l-0.4,7.7c0,0.2-0.1,0.4-0.3,0.6C280.8,173.7,280.6,173.7,280.5,173.7z&#10;&#9;&#9; M272.6,164.4c1.4,3.3,4,6,7.2,7.6l0.3-6C277.5,165.8,275,165.3,272.6,164.4L272.6,164.4z"/>
	<path class="st1_advertising-5-83" d="M210.8,245.5c6,8.1,11.8,15.3,19.2,22.1c2.8,2.5,7.4,2.5,11,3.4c1.6,0.4,3.3,0.9,4,2.3c0.3,0.5,0.3,1.1,0,1.5&#10;&#9;&#9;c-0.2,0.2-0.4,0.3-0.7,0.4c-1.9,0.7-3.6,0.5-5.4,0.9c-1.1,0.2-1.2-0.1-0.8,1c0.4,1,1.9,1.9,2.5,2.7c1.2,1.4,2.2,3,3.2,4.5&#10;&#9;&#9;c0.8,0.9,1.3,2,1.6,3.2c0.4,2.4-1.5,4.8-3.8,5.6c-2.4,0.7-4.9,0.6-7.2-0.1c-6.5-1.5-12.4-4.8-17.1-9.7c-4.9-5-9.6-10.3-14.1-15.7"/>
	<path class="st3_advertising-5-83" d="M238.7,294.2c-1.5,0-2.9-0.2-4.3-0.6c-6.6-1.5-12.7-4.9-17.4-9.9c-4.9-5-9.6-10.3-14.1-15.7&#10;&#9;&#9;c-0.3-0.3-0.2-0.8,0.1-1c0.3-0.3,0.8-0.2,1,0.1c4.4,5.4,9.2,10.6,14,15.6c4.5,4.7,10.3,8,16.7,9.5c2,0.5,4.6,0.9,6.8,0.1&#10;&#9;&#9;c1.9-0.7,3.7-2.7,3.3-4.8c-0.3-1.1-0.8-2.1-1.5-2.9c-0.3-0.4-0.6-0.9-0.9-1.3c-0.7-1-1.4-2.1-2.2-3.1c-0.3-0.3-0.6-0.6-0.9-0.8&#10;&#9;&#9;c-0.7-0.5-1.3-1.2-1.8-2.1c-0.3-0.7-0.4-1.1-0.2-1.5c0.2-0.3,0.6-0.5,0.9-0.4c0.2,0,0.4,0,0.6-0.1c0.7-0.1,1.4-0.2,2.1-0.2&#10;&#9;&#9;c1.1,0,2.2-0.2,3.2-0.6c0.2,0,0.3-0.1,0.4-0.2c0.1-0.2,0.1-0.5-0.1-0.7c-0.6-1.1-2.1-1.6-3.5-1.9c-0.9-0.2-1.9-0.4-2.9-0.5&#10;&#9;&#9;c-3-0.5-6.2-1-8.4-3c-7.3-6.6-13-13.7-19.4-22.2c-0.3-0.3-0.2-0.8,0-1s0.8-0.2,1,0c0,0,0.1,0.1,0.1,0.1c6.3,8.5,11.9,15.5,19.1,22&#10;&#9;&#9;c1.9,1.7,4.8,2.2,7.6,2.7c1,0.2,2.1,0.3,3.1,0.6c1.7,0.4,3.6,1,4.5,2.6c0.4,0.7,0.4,1.6-0.1,2.3c-0.3,0.3-0.6,0.5-1,0.6&#10;&#9;&#9;c-1.2,0.4-2.4,0.6-3.6,0.7c-0.7,0-1.3,0.1-1.9,0.2h-0.2c0.4,0.6,0.8,1.1,1.3,1.5c0.4,0.3,0.7,0.6,1,1c0.9,1,1.6,2.1,2.3,3.2&#10;&#9;&#9;c0.3,0.4,0.6,0.9,0.9,1.3c0.8,1,1.4,2.2,1.7,3.5c0.5,2.9-1.8,5.5-4.3,6.4C240.8,294,239.8,294.2,238.7,294.2z"/>
	<path class="st2_advertising-5-83 targetColor" d="M244.4,164.3c0,0-61.9,38.7-59.9,69.1c1.3,18.4,9.1,35.8,21.9,49.1l24.2-19.9c0,0-18.4-18.9-15.5-32.7&#10;&#9;&#9;s29.9-26.5,29.9-26.5S258.1,165.7,244.4,164.3z" style="fill: rgb(105, 117, 101);"/>
	<path class="st1_advertising-5-83" d="M245.3,154.3c-6.8,0-30.8-1.6-31.9-1.7c-0.4,0-0.7-0.4-0.7-0.8s0.4-0.7,0.8-0.7c0.3,0,26.6,1.8,32.4,1.7l0,0&#10;&#9;&#9;c0.4,0,0.8,0.3,0.8,0.8s-0.3,0.8-0.8,0.8H245.3z"/>
	<path class="st3_advertising-5-83" d="M374.3,394.8c-0.2,0-0.4-0.1-0.6-0.3c-0.2-0.3-0.2-0.8,0.1-1l4.1-3.2c0.3-0.2,0.7-0.2,1,0.1&#10;&#9;&#9;c0.2,0.3,0.2,0.8-0.1,1l-4.1,3.2C374.7,394.7,374.5,394.8,374.3,394.8z"/>
	<path class="st3_advertising-5-83" d="M378,398.7l-1.1-1l3.8-4.5c0.3-0.3,0.7-0.3,1-0.1c0.3,0.3,0.3,0.7,0.1,1l0,0L378,398.7z"/>
	<path class="st1_advertising-5-83" d="M401.4,145h29.9c1.1,0,2,0.9,2,2v13.4c0,1.1-0.9,2-2,2h-29.9c-1.1,0-2-0.9-2-2V147&#10;&#9;&#9;C399.4,145.9,400.3,145,401.4,145z"/>
	<path class="st3_advertising-5-83" d="M431.3,163.1h-29.9c-1.5,0-2.7-1.2-2.7-2.7V147c0-1.5,1.2-2.7,2.7-2.7h29.9c1.5,0,2.7,1.2,2.7,2.7c0,0,0,0,0,0&#10;&#9;&#9;v13.4C434,161.9,432.8,163.1,431.3,163.1C431.3,163.1,431.3,163.1,431.3,163.1z M401.4,145.7c-0.7,0-1.2,0.6-1.2,1.2v13.4&#10;&#9;&#9;c0,0.7,0.5,1.3,1.2,1.3c0,0,0,0,0,0h29.9c0.7,0,1.3-0.5,1.3-1.2c0,0,0,0,0,0V147c0-0.7-0.6-1.3-1.2-1.3c0,0,0,0,0,0L401.4,145.7z"/>
	<path class="st1_advertising-5-83" d="M382.8,221.7l2.9-6.4c0.3-0.8,0.8-1.6,1.3-2.3c0.8-0.8,1.7-1.5,2.8-2c2.1-1.1,4.2-2.1,6.4-2.9&#10;&#9;&#9;c0.3-0.1,0.6-0.2,0.9-0.2c0.6,0.1,1,0.5,1.1,1.1c0.1,0.5,0,1.1-0.3,1.6c-1,1.9-3.2,2.7-4.6,4.3c-0.3,3.7-2.7,6.9-6.1,8.3"/>
	<path class="st3_advertising-5-83" d="M387,223.8c-0.3,0-0.6-0.2-0.7-0.5c-0.1-0.4,0-0.8,0.4-0.9c3.2-1.3,5.4-4.3,5.7-7.7c0-0.2,0.1-0.3,0.2-0.4&#10;&#9;&#9;c0.6-0.7,1.4-1.3,2.1-1.8c1-0.6,1.8-1.4,2.4-2.3c0.2-0.3,0.3-0.7,0.2-1.1c0-0.2-0.2-0.4-0.4-0.5c-0.2,0-0.4,0.1-0.5,0.1&#10;&#9;&#9;c-2.1,0.8-4.2,1.8-6.3,2.9c-1,0.5-1.8,1.1-2.6,1.9c-0.5,0.7-0.9,1.4-1.2,2.1l-2.9,6.4c-0.2,0.4-0.6,0.5-1,0.4&#10;&#9;&#9;c-0.4-0.2-0.5-0.6-0.4-1l0,0l2.9-6.4c0.4-0.9,0.8-1.7,1.4-2.4c0.8-0.9,1.9-1.7,3-2.2c2.1-1.1,4.2-2.1,6.4-3&#10;&#9;&#9;c0.4-0.2,0.8-0.2,1.2-0.2c0.9,0.1,1.6,0.8,1.8,1.6c0.1,0.7,0,1.4-0.4,2.1c-0.7,1.1-1.7,2.1-2.8,2.8c-0.6,0.4-1.2,0.9-1.8,1.4&#10;&#9;&#9;c-0.4,3.9-3,7.2-6.6,8.7C387.2,223.8,387.1,223.8,387,223.8z"/>
	<rect x="413" y="151.9" class="st3_advertising-5-83" width="7" height="10.4"/>
	<path class="st3_advertising-5-83" d="M420,163.1h-7c-0.4,0-0.7-0.3-0.7-0.7l0,0V152c0-0.4,0.3-0.7,0.7-0.7l0,0h7c0.4,0,0.7,0.3,0.7,0.7l0,0v10.4&#10;&#9;&#9;C420.7,162.8,420.4,163.1,420,163.1z M413.7,161.6h5.6v-9h-5.6V161.6z"/>
	<circle class="st3_advertising-5-83" cx="427.5" cy="153.6" r="1.6"/>
	<path class="st1_advertising-5-83" d="M237.4,124.9c-0.2,0-0.4-0.1-0.5-0.2c-0.3-0.3-0.3-0.7,0-1c0.1-0.2,15.7-15.6,41.2-21.8&#10;&#9;&#9;c0.4-0.1,0.8,0.1,0.9,0.4c0.1,0.4-0.1,0.8-0.4,0.9c-0.1,0-0.1,0-0.2,0c-25.1,6-40.4,21.2-40.5,21.4&#10;&#9;&#9;C237.8,124.8,237.6,124.9,237.4,124.9z"/>
</g>
</svg>