<svg id="_0077_marketing" xmlns="http://www.w3.org/2000/svg" viewBox="0 0 500 500" data-imageid="marketing-20" imageName="Marketing" class="illustrations_image" style="width: 144px;"><defs><style>.cls-1_marketing-20,.cls-2_marketing-20,.cls-3_marketing-20,.cls-4_marketing-20{fill:#fff;}.cls-5_marketing-20{fill:#f4a28c;}.cls-6_marketing-20{fill:#a5a5a5;}.cls-2_marketing-20{opacity:.4;}.cls-7_marketing-20{opacity:.03;}.cls-7_marketing-20,.cls-8_marketing-20{fill:#000001;}.cls-9_marketing-20{fill:#e6e6e6;}.cls-3_marketing-20{opacity:.72;}.cls-10_marketing-20{fill:#ce8172;opacity:.31;}.cls-11_marketing-20{opacity:.58;}.cls-11_marketing-20,.cls-12_marketing-20,.cls-13_marketing-20{fill:#68e1fd;}.cls-4_marketing-20{opacity:.46;}.cls-14_marketing-20{fill:#24285b;}.cls-8_marketing-20{opacity:.08;}.cls-12_marketing-20{opacity:.73;}.cls-15_marketing-20{fill:#ffd200;}</style></defs><g id="monitor_person_marketing-20"><rect class="cls-6_marketing-20" x="62.23" y="94.1" width="371.44" height="241.34"/><polygon class="cls-6_marketing-20" points="216.06 311.61 196.4 412.45 306.05 412.45 281.71 311.61 216.06 311.61"/><path class="cls-8_marketing-20" d="m242.9,94.89h19.88s-4.33,13.58-9.94,21.98,12.69,20.6,12.69,20.6l68.86-43.23,21.42-.14s23.56,44.95,4.76,63.17c-18.8,18.22-62.62,7.88-64.1,21.17s26.1,39.36,26.1,39.36l89.27-67.48s18.56,12,2.31,24.24c-16.25,12.24-58.95,87.33-87.82,87.95s-36.75-10.81-30.35,17.8h-44.31l-10.83-109.1-14.55-33.74,9.22-38.7,7.39-3.89Z"/><path class="cls-5_marketing-20" d="m396.64,151.94s9.31-10.28,16.02-9.77,10.29,13.34-10.56,20.87l-5.46-11.11Z"/><path class="cls-13_marketing-20 targetColor" d="m294.64,149.22l31.69,53.02,68.62-49.64,12.31,9.3-68.24,73.1c-10.1,10.82-27.36,10.49-37.04-.71l-34.04-39.38,26.7-45.68Z" style="fill: rgb(105, 117, 101);"/><path class="cls-4_marketing-20" d="m294.64,149.22l31.69,53.02,68.62-49.64,12.31,9.3-68.24,73.1c-10.1,10.82-27.36,10.49-37.04-.71l-34.04-39.38,26.7-45.68Z"/><rect class="cls-9_marketing-20" x="62.23" y="280.32" width="371.44" height="55.13"/><circle class="cls-6_marketing-20" cx="250.02" cy="304.59" r="14.92"/><rect class="cls-9_marketing-20" x="176.02" y="394.78" width="148.9" height="32.41"/><path class="cls-5_marketing-20" d="m242.69,92.5s1.16,10.29-.4,17.19c-.63,2.8-3.46,4.58-6.25,3.91-3.46-.83-7.91-2.97-9.2-8.4l-3.33-8.96s-1.89-5.69,3.84-10.03c5.72-4.35,14.94,0,15.33,6.3Z"/><polygon class="cls-5_marketing-20" points="225.43 98.78 217.06 131.65 235.51 134.96 234.19 109.71 225.43 98.78"/><path class="cls-14_marketing-20" d="m222.4,104.29h0c0,.45.32.83.76.92,1.58.35,5.27.65,7.66-3.23,3.11-5.05-.24-9.47-.24-9.47,4.43.7,7.75.63,9.56.49,1.08-.08,2.14-.28,3.13-.71l2.47-7.83s4.06-7.87-.55-9.44-6.65,3.69-10.43,0c-3.78-3.69-4.66-5.08-8.47-2.95s.62,5.08-5.66,5.17c-6.28.09-6.37,2.68-6.37,5.54,0,.72.5,1.63,1.25,2.6,4.21,5.47,6.81,12.01,6.9,18.92Z"/><path class="cls-5_marketing-20" d="m231.93,101.64s-.18-3.98-3.16-3.6c-2.99.38-2.76,6.14,1.32,6.57l1.84-2.97Z"/><path class="cls-5_marketing-20" d="m243.09,99.02l2.99,3.91c.74.97.22,2.37-.97,2.63l-3.94.85,1.92-7.38Z"/><path class="cls-10_marketing-20" d="m234.3,113.08s-2.37-.4-6.64-4.28c0,0-.61,6.74,7.09,11.7l-.45-7.42Z"/><path class="cls-13_marketing-20 targetColor" d="m169.77,161.28c1.74-13.8,12.46-24.75,26.19-26.92,20.53-3.25,53.17-5.54,84.27,4.45,50.59,16.25-9.6,123.71-9.6,123.71h-74.23s-33.48-46.93-26.64-101.24Z" style="fill: rgb(105, 117, 101);"/><polygon class="cls-14_marketing-20" points="196.4 262.52 202.56 280.32 277.89 280.32 270.63 262.52 196.4 262.52"/><polygon class="cls-15_marketing-20" points="260.43 150.2 269.96 174.57 277.93 170.39 269.96 149.22 260.43 150.2"/><path class="cls-8_marketing-20" d="m201.69,149.03s26.96,19.3,12.93,54.58l58.72-47.44s11.78,11.97-5.39,24.03c-17.17,12.06-15.58,60.17-41.65,82.32h-29.88l-6.9-17.36-5.91-52.14,18.09-44Z"/><polygon class="cls-2_marketing-20" points="260.43 150.2 269.96 174.57 277.93 170.39 269.96 149.22 260.43 150.2"/><path class="cls-5_marketing-20" d="m257.32,160.11s9.31-10.28,16.02-9.77c6.71.51,10.29,13.34-10.56,20.87l-5.46-11.11Z"/><polygon class="cls-15_marketing-20" points="265.53 128.74 331.63 89.23 346.4 149.22 269.96 149.22 265.53 128.74"/><polygon class="cls-15_marketing-20" points="265.53 128.74 248.78 134.51 253.95 152.6 269.96 149.22 265.53 128.74"/><polygon class="cls-8_marketing-20" points="265.53 128.74 248.78 134.51 253.95 152.6 269.96 149.22 265.53 128.74"/><path class="cls-13_marketing-20 targetColor" d="m202.85,153.27c-2.01-13.99-19.27-19.94-29.52-10.21-6.49,6.16-12.05,15.23-11.9,28.16.37,30.73-.74,80.22,24,89.45s77.34-89.45,77.34-89.45l-5.46-11.11-62.64,52.2s11.87-33.28,8.17-59.04Z" style="fill: rgb(105, 117, 101);"/><path class="cls-4_marketing-20" d="m202.85,153.27c-2.01-13.99-19.27-19.94-29.52-10.21-6.49,6.16-12.05,15.23-11.9,28.16.37,30.73-.74,80.22,24,89.45s77.34-89.45,77.34-89.45l-5.46-11.11-62.64,52.2s11.87-33.28,8.17-59.04Z"/><ellipse class="cls-15_marketing-20" cx="340.21" cy="118.88" rx="12.23" ry="31.01" transform="translate(-18.4 83.17) rotate(-13.57)"/><ellipse class="cls-2_marketing-20" cx="340.21" cy="118.88" rx="12.23" ry="31.01" transform="translate(-18.4 83.17) rotate(-13.57)"/><path class="cls-15_marketing-20" d="m327.29,108.72c-.34.08-.65.22-.96.37.17,4.28.81,9,1.99,13.9,1.31,5.41,3.1,10.34,5.14,14.49.25-.02.49-.05.74-.11,4.21-1.02,6.08-8.26,4.17-16.17-1.91-7.91-6.87-13.5-11.09-12.48Z"/><path class="cls-8_marketing-20" d="m327.29,108.72c-.34.08-.65.22-.96.37.17,4.28.81,9,1.99,13.9,1.31,5.41,3.1,10.34,5.14,14.49.25-.02.49-.05.74-.11,4.21-1.02,6.08-8.26,4.17-16.17-1.91-7.91-6.87-13.5-11.09-12.48Z"/></g><ellipse id="sd_marketing-20" class="cls-7_marketing-20" cx="250.23" cy="428.74" rx="154.15" ry="18.14"/><g id="plant_marketing-20"><path class="cls-11_marketing-20 targetColor" d="m351.06,409.96s-13.36-3.65-16.27-16.09c0,0,20.7-4.18,21.29,17.18l-5.02-1.1Z" style="fill: rgb(105, 117, 101);"/><path class="cls-12_marketing-20 targetColor" d="m352.69,408.63s-9.34-14.76-1.12-28.56c0,0,15.74,10,8.75,28.59l-7.63-.03Z" style="fill: rgb(105, 117, 101);"/><path class="cls-13_marketing-20 targetColor" d="m355.1,408.64s4.93-15.59,19.84-18.54c0,0,2.8,10.12-9.65,18.58l-10.19-.04Z" style="fill: rgb(105, 117, 101);"/><polygon class="cls-14_marketing-20" points="345.41 408.29 348.12 426.82 365.18 426.9 367.69 408.39 345.41 408.29"/></g><g id="vid_marketing-20"><rect class="cls-15_marketing-20" x="371.71" y="245.71" width="98.23" height="64.1"/><polygon class="cls-1_marketing-20" points="405.55 260.53 405.55 294.99 441.42 275.56 405.55 260.53"/></g><g id="like_marketing-20"><rect class="cls-14_marketing-20" x="34.17" y="61.22" width="84.72" height="80.19"/><path class="cls-1_marketing-20" d="m84.37,82.63c-2.3,0-4.4.73-6.26,2.16-1.78,1.38-2.97,3.13-3.66,4.41-.7-1.28-1.88-3.03-3.66-4.41-1.86-1.44-3.96-2.16-6.26-2.16-6.41,0-11.25,5.24-11.25,12.2,0,7.51,6.03,12.65,15.16,20.44,1.55,1.32,3.31,2.82,5.14,4.42.24.21.55.33.87.33s.63-.12.87-.33c1.83-1.6,3.58-3.1,5.14-4.42,9.13-7.78,15.16-12.92,15.16-20.43,0-6.95-4.84-12.2-11.25-12.2Z"/></g><g id="img_marketing-20"><rect class="cls-9_marketing-20" x="395.63" y="53.12" width="86.92" height="74.54"/><polygon class="cls-3_marketing-20" points="395.63 112.66 422.82 70.08 439.09 108.9 456.9 77.12 482.55 115.41 482.55 127.66 395.63 127.66 395.63 112.66"/><circle class="cls-1_marketing-20" cx="440.81" cy="73.21" r="7.47"/></g><g id="mail_marketing-20"><rect class="cls-15_marketing-20" x="17.45" y="182.31" width="96.75" height="64.92"/><polygon class="cls-4_marketing-20" points="17.45 182.31 65.83 228.32 114.2 182.31 17.45 182.31"/></g></svg>