<svg id="_0525_twitter" xmlns="http://www.w3.org/2000/svg" xmlns:xlink="http://www.w3.org/1999/xlink" viewBox="0 0 500 500" data-imageid="twitter-84-08482" imageName="Twitter" class="illustrations_image" style="width: 144px;"><defs><style>.cls-1_twitter-84-08482{fill:url(#linear-gradient);}.cls-1_twitter-84-08482,.cls-2_twitter-84-08482,.cls-3_twitter-84-08482,.cls-4_twitter-84-08482,.cls-5_twitter-84-08482,.cls-6_twitter-84-08482{stroke-width:0px;}.cls-2_twitter-84-08482{isolation:isolate;opacity:.18;}.cls-2_twitter-84-08482,.cls-6_twitter-84-08482{fill:#68e1fd;}.cls-3_twitter-84-08482{fill:#231f20;}.cls-4_twitter-84-08482{fill:#fff;}.cls-5_twitter-84-08482{fill:#fcab9a;}</style><linearGradient id="linear-gradient-twitter-84-08482" x1="38.55" y1="-164.28" x2="-246.52" y2="244.99" gradientTransform="translate(385.89 327.56)" gradientUnits="userSpaceOnUse"><stop offset="0" stop-color="#231f20"/><stop offset=".08" stop-color="#231f20" stop-opacity=".69"/><stop offset=".21" stop-color="#231f20" stop-opacity=".32"/><stop offset="1" stop-color="#231f20" stop-opacity="0"/></linearGradient></defs><g id="background_twitter-84-08482"><path class="cls-2_twitter-84-08482 targetColor" d="M275.68,41.71c-6.04,1.09-12,2.59-17.84,4.48-38.68,12.62-112.2,32.1-140.87,60.99-33.25,33.46-22.99,77.49-56.44,110.75-27.66,27.52-50.74,54.44-50.68,96.21.11,73.57,63.67,99.14,123.09,117.66,70.4,22.01,145.26,32.03,218.68,22.01,31.13-4.24,62.56-12.42,87.96-30.87,37.99-27.59,56.25-78.25,48.36-124.05-4-23.25-11.02-44.26-12.93-68.14-2.49-31.13,2.76-63.07-6.37-93.51-15.92-53.01-71.62-84.89-126.13-94.54-22.03-3.92-44.89-4.99-66.82-1Z" style="fill: rgb(105, 117, 101);"/></g><g id="twitter_icon_twitter-84-08482"><g id="BafEv0_twitter-84-08482"><path class="cls-6_twitter-84-08482 targetColor" d="M451.3,235.1c-4.64,6.79-10.03,13.02-16.09,18.58-2.09,1.95-4.24,3.88-6.39,5.74-2.45,2.18-3.82,5.32-3.78,8.6-.37,8.53-1.22,17.03-2.55,25.47-2.78,17.52-8.59,34.43-17.15,49.97-9.79,17.99-23.2,33.76-39.39,46.31-15,11.63-32.19,20.12-50.54,24.97-8.4,2.16-16.96,3.65-25.59,4.44-8.81,1.06-17.71,1.25-26.56.57-13.81-1.05-27.41-3.95-40.44-8.63-9.05-3.48-17.86-7.54-26.39-12.15-1.18-.45-2.18-1.28-2.83-2.36,2.83-.65,5.38.2,7.98.25,11.66.25,23.29-1.31,34.47-4.64,11.55-3.29,22.41-8.63,32.06-15.78.58-.44,1.41-.76,1.26-1.61-.16-.85-1.22-.59-1.91-.68-14.04-1.4-26.98-8.25-36.04-19.07-3.55-4.49-6.49-9.42-8.74-14.69-.88-1.81-.96-2.83,1.78-2.56,5.53.54,11.1.42,16.6-.35.76-.13,1.71,0,2.09-1.17-3.98-1.35-7.88-2.96-11.66-4.8-14.46-7.61-23.2-19.6-27.05-35.37-.68-3.16-1.12-6.36-1.33-9.58-.07-.74-.52-1.56.11-2.09.64-.54,1.41,0,2.04.35,5.73,2.6,11.81,4.35,18.05,5.18.54.1,1.2.42,1.53-.11.5-.81-.35-1.08-.83-1.41-9.54-7.44-16.24-17.93-18.99-29.71-2.69-10.27-1.99-21.14,2.01-30.97.83-2.04,1.9-4,2.65-6.08.75-2.08,1.41-1.74,2.57-.41,4.51,5.26,9.34,10.24,14.45,14.93,13.26,12.32,28.62,21.22,45.27,28.2,13.78,5.79,28.3,8.49,42.91,10.34h.55c4.34.31,4.33.07,3.81-4.36-1.26-9.48.01-19.13,3.69-27.96,7.51-17.64,21.22-28.14,39.62-31.61,13.16-2.62,26.82.14,37.93,7.65,2.6,1.58,5.03,3.42,7.26,5.5,1.49,1.61,3.74,2.27,5.86,1.73,6.9-1.56,13.63-3.8,20.09-6.68l8.04-3.74c.55-.25,1.16-.82,1.74-.13.58.69,0,1.05-.25,1.53-2.71,6.79-6.76,12.96-11.91,18.14-2.55,2.8-5.39,5.31-8.49,7.48,9.69-.74,18.66-4.09,28.48-7.23Z" style="fill: rgb(105, 117, 101);"/></g><g id="BafEv0-2_twitter-84-08482"><path class="cls-6_twitter-84-08482 targetColor" d="M205.39,144.79c-1.29,1.88-2.78,3.62-4.46,5.16-.58.54-1.17,1.08-1.78,1.58-.68.61-1.06,1.48-1.05,2.39-.1,2.37-.34,4.73-.71,7.07-.77,4.86-2.38,9.55-4.75,13.87-2.71,5-6.44,9.38-10.94,12.86-4.17,3.23-8.94,5.59-14.04,6.93-2.32.58-4.69.99-7.07,1.22-2.45.29-4.91.34-7.37.16-3.83-.29-7.6-1.1-11.22-2.39-2.51-.97-4.96-2.1-7.33-3.38-.32-.13-.6-.36-.78-.65.74-.1,1.48-.1,2.22,0,3.23.07,6.45-.37,9.55-1.29,3.21-.9,6.23-2.39,8.9-4.39.17-.11.41-.21.35-.44s-.34-.17-.54-.2c-3.89-.39-7.48-2.29-9.99-5.29-.99-1.24-1.81-2.61-2.43-4.07-.24-.51-.27-.76.5-.71,1.53.14,3.07.11,4.6-.1.21,0,.48,0,.59-.33-1.11-.38-2.19-.82-3.24-1.33-3.85-1.98-6.61-5.59-7.51-9.82-.19-.88-.31-1.77-.37-2.66,0-.2-.14-.42,0-.58s.4,0,.57.1c1.59.72,3.28,1.19,5.01,1.41.16,0,.33.13.42,0s-.1-.3-.23-.41c-2.65-2.04-4.51-4.94-5.28-8.19-.75-2.85-.55-5.87.55-8.6.24-.57.54-1.1.74-1.68s.41-.48.72-.11c1.25,1.46,2.59,2.84,4,4.15,3.69,3.33,7.94,5.98,12.56,7.82,3.83,1.47,7.83,2.42,11.91,2.83h.16c1.2.08,1.2,0,1.06-1.22-.36-2.63,0-5.31,1.02-7.75,1.85-4.67,6.04-8.01,11.01-8.77,3.65-.74,7.45.03,10.53,2.12.72.44,1.4.95,2.01,1.53.41.45,1.04.64,1.63.48,1.91-.43,3.78-1.05,5.57-1.85l2.24-1.05c.16,0,.33-.23.48,0s0,.28-.07.42c-.74,1.89-1.86,3.61-3.28,5.05-.7.78-1.49,1.47-2.35,2.08,2.69-.36,5.34-1.02,7.88-1.98Z" style="fill: rgb(105, 117, 101);"/></g><g id="BafEv0-3_twitter-84-08482"><path class="cls-6_twitter-84-08482 targetColor" d="M146.83,301.19c-1.28,1.89-2.78,3.62-4.46,5.16-.58.54-1.17,1.08-1.78,1.58-.68.61-1.06,1.48-1.05,2.39-.09,2.37-.33,4.73-.71,7.07-.77,4.87-2.38,9.56-4.75,13.88-2.72,4.99-6.45,9.37-10.94,12.86-4.16,3.23-8.94,5.58-14.04,6.92-2.32.59-4.69,1.01-7.07,1.23-2.45.29-4.91.34-7.37.16-3.83-.29-7.6-1.1-11.22-2.39-2.48-.98-4.91-2.11-7.26-3.38-.32-.13-.6-.36-.78-.65.74-.08,1.49-.05,2.22.07,3.19.08,6.38-.33,9.45-1.22,3.21-.9,6.24-2.39,8.91-4.39.17-.13.41-.21.35-.45s-.34-.16-.54-.18c-3.89-.39-7.48-2.29-9.99-5.29-.99-1.24-1.81-2.61-2.43-4.07-.24-.51-.27-.76.5-.71,1.54.14,3.08.11,4.61-.1.2,0,.47,0,.58-.33-1.11-.38-2.19-.83-3.24-1.34-3.85-1.97-6.61-5.57-7.51-9.8-.19-.88-.31-1.77-.37-2.66,0-.2-.14-.42,0-.58s.4,0,.57.1c1.59.71,3.28,1.19,5.01,1.41.16,0,.33.11.42,0s-.1-.3-.23-.41c-2.66-2.06-4.53-4.98-5.28-8.26-.75-2.85-.55-5.87.55-8.6.24-.57.54-1.1.74-1.68s.41-.48.72-.11c1.25,1.46,2.59,2.84,4,4.15,3.7,3.32,7.95,5.97,12.56,7.82,3.83,1.47,7.83,2.42,11.91,2.83h.16c1.2.08,1.2,0,1.06-1.22-.35-2.63,0-5.3,1.02-7.75,1.87-4.66,6.05-7.99,11.01-8.77,3.65-.74,7.45.03,10.53,2.12.72.44,1.4.95,2.01,1.53.42.44,1.04.62,1.63.48,1.94-.44,3.83-1.06,5.66-1.85l2.22-1.05c.16-.07.33-.23.48,0s0,.28,0,.42c-.75,1.88-1.87,3.6-3.28,5.05-.7.78-1.49,1.47-2.35,2.08,2.66-.38,5.26-1.08,7.75-2.07Z" style="fill: rgb(105, 117, 101);"/></g></g><g id="bubble_twitter-84-08482"><rect class="cls-4_twitter-84-08482" x="339.57" y="80.73" width="87.31" height="41.43" rx="12.22" ry="12.22"/><polygon class="cls-4_twitter-84-08482" points="339.57 109.94 326.88 128.14 351.8 122.17 339.57 109.94"/><rect class="cls-2_twitter-84-08482 targetColor" x="351.8" y="90.83" width="62.34" height="3.45" style="fill: rgb(105, 117, 101);"/><rect class="cls-2_twitter-84-08482 targetColor" x="351.8" y="98" width="62.34" height="3.45" style="fill: rgb(105, 117, 101);"/><rect class="cls-2_twitter-84-08482 targetColor" x="351.8" y="107.16" width="62.34" height="3.45" style="fill: rgb(105, 117, 101);"/><rect class="cls-4_twitter-84-08482" x="193.63" y="76.03" width="87.31" height="41.43" rx="12.22" ry="12.22"/><polygon class="cls-4_twitter-84-08482" points="280.95 105.23 293.65 123.43 268.73 117.44 280.95 105.23"/><rect class="cls-2_twitter-84-08482 targetColor" x="206.39" y="86.1" width="62.34" height="3.45" style="fill: rgb(105, 117, 101);"/><rect class="cls-2_twitter-84-08482 targetColor" x="206.39" y="93.29" width="62.34" height="3.45" style="fill: rgb(105, 117, 101);"/><rect class="cls-2_twitter-84-08482 targetColor" x="206.39" y="102.45" width="62.34" height="3.45" style="fill: rgb(105, 117, 101);"/></g><g id="character_twitter-84-08482"><path class="cls-1_twitter-84-08482" d="M301.4,299.81c10.78,7.17,24.05,10,37.04,9.32-3.43,11.92-5.36,24.23-5.73,36.63-.24,2.13.08,4.28.92,6.25,1.41,2.7,4.48,4.05,7.41,4.88,5.21,1.47,10.66,1.92,16.04,1.32-1.97-10.24-3.22-20.6-3.76-31.01-.24-8.49.47-16.98.69-25.47.08-3.62.79-8.32,0-11.86-.79-3.31-4.68-5.46-7.07-7.77-3.86-3.71-6.73-8.33-8.35-13.44-1.04-2.84-1.26-5.92-.64-8.89.89-3.48,3.44-6.3,4.7-9.66s.5-8.14-2.97-9.08c-2.66-.74-5.89,1.09-8.06-.58-.78-.61-1.25-1.57-2.07-2.12-1.56-.84-3.5-.48-4.67.85-1.12,1.3-2.01,2.79-2.62,4.4-3.38,6.46-8.58,11.8-14.95,15.35-4,2.3-8.22,4.2-12.59,5.66-3.28,1.16-8.49,1.41-11.32,3.34-3.21,2.15-.57,7.6.86,11.08,3.53,8.48,9.49,15.72,17.13,20.8Z"/><path class="cls-5_twitter-84-08482" d="M349.25,354.78c.33.39.75.68,1.23.85,6.81,3.01,14.5,3.11,21.96,3.16.48.04.97-.04,1.41-.24.8-.58,1.06-1.67.59-2.55-.48-.84-1.19-1.53-2.04-1.99-2.16-1.43-4.45-2.68-6.82-3.74-1.87-.83-3.99-1.73-4.75-3.62-.28-.99-.46-2.01-.52-3.04-.71-4.36-7.57-2.22-9.9,0-2.05,1.99-2.74,8.98-1.16,11.18Z"/><path class="cls-3_twitter-84-08482" d="M283.54,252.66s-4.24,21.73,14.46,30.84c12.99,6.3,28.69,7.46,42.9,7.99,2.49.08,5.29-.16,7.8.18,4.94.64,3.51,3.76,2.93,7.91-1.35,10.49-2.76,20.96-4.24,31.42-1.16,5.44-1.08,11.07.23,16.48l14.93-2.01c1.56-15.24,4.37-30.32,8.42-45.09,1.77-6.4,4.24-14.36.57-20.47-3.6-5.52-8.74-9.86-14.78-12.49l-37.55-17.35-35.64,2.57Z"/><path class="cls-5_twitter-84-08482" d="M324.56,155.66c.55,1.3,1.94,2.21,2.26,3.62.33,1.41-.96,3.18-1.77,4.8-1.08,2.14-1.15,4.68-2.24,6.86-.2.47-.53.88-.95,1.17-.4.19-.83.3-1.27.31-1.72.14-3.44.02-5.12-.35-.3-.15-.65-.19-.98-.11-.28.19-.48.48-.57.81-1.51,4.16-2,8.62-1.41,13,.2,1.41.37,3.2-.79,4.06-.41.31-.9.48-1.41.5-3.34.38-6.14-2.42-8.02-5.19-1.64-2.51-2.98-5.2-3.99-8.02-.34-.82-.53-1.7-.55-2.59.07-1.04.34-2.06.79-3,1.37-3.42,2.39-6.97,3.06-10.6.85-4.63,1.22-9.52,3.45-13.62.72-1.41,1.88-2.56,3.3-3.27,1.63-.52,3.37-.58,5.04-.18,3.45.2,6.68,1.72,9.04,4.24.64.96,1.36,5.94,2.14,7.57Z"/><path class="cls-4_twitter-84-08482" d="M329.31,190.53c.05,6.48-.55,12.94-1.8,19.3-5-.73-9.71-2.77-13.67-5.91-1.2-.9-2.24-2.01-3.06-3.27-1.73-2.83-2.69-12.8,1.41-14.26,1.74-.62,17.11,3.75,17.11,4.15Z"/><path class="cls-4_twitter-84-08482" d="M316.71,253.83c-2.43,1.63-5.19,2.7-8.08,3.16-4.1.96-8.05,2.49-11.73,4.56-2.21,1.33-3.69,3.57-5.66,5.25-3.13,2.66-7.28,3.77-11.32,3.03-.2-.55-.38-1.1-.57-1.66-6.2-18.69-5.22-38.77-3.37-58.09.86-9.13,8.05-38.36,21.83-34.96,0,0,13.04,9.01,16.54,15.18,3.18,5.66,7.81,10.27,6.96,17.32-1.13,9.9-6.44,18.6-6.95,28.93-.18,1.49,0,3,.54,4.4.95,2.01,3.17,3.2,4.1,5.19,1.02,2.79.08,5.92-2.31,7.7Z"/><path class="cls-5_twitter-84-08482" d="M295.8,238.03c.27,1.39.78,2.73,1.5,3.95,1.99,2.49,4.85,4.13,8.01,4.58,3.58.84,7.19,1.5,10.84,1.97,5.4.69,9.73,3.16,15.38,1,3.86-1.66,7.31-4.16,10.07-7.33.86-.92,1.6-2.66.45-3.23-.29-.13-.61-.18-.93-.16h-9.39c-.18-.75.35-1.41.72-2.14s.52-1.7-.14-2.07-1.26.11-1.8.48c-5.37,3.65-12.17,4.45-18.24,2.15-5.53-2.08-5.96-8.97-6.75-14.23-.04-1.32-.68-2.55-1.75-3.32-.89-.33-1.87-.28-2.73.13-3.21.99-5.92,3.16-7.6,6.07-1.32,2.97,1.5,8.89,2.36,12.14Z"/><path class="cls-4_twitter-84-08482" d="M300.95,194.14s5.77,24.97,7.27,26.88c1.5,1.91-18.56,10.17-18.56,10.17,0,0-9.22-24.76-7.37-34.73,1.85-9.97,12.99-12.68,18.66-2.32Z"/><path class="cls-3_twitter-84-08482" d="M325.47,148.09c0,.28-.05.57-.14.83-.26.43-.65.75-1.12.93l-1.91.99c-.43.35-1.06.28-1.41-.15,0,0,0,0,0,0l-4.24-3.71,1.02,4.09-5.66,2.59-3.07-2.83c.75,3.45-.61,6.98-1.73,10.34-1.64,4.95-2.83,10.38-1.12,15.34,1.41,4.03,4.57,7.6,4.46,11.86l-6.56-6.35c-1.54-1.63-3.33-3.01-5.31-4.07-2.01-1.08-4.41-1.15-6.48-.2-.9.53-1.71,1.19-2.41,1.97-3.99,3.95-7.84,7.07-9.9,12.29-.51,1.26-5.12,15.56-4.88,15.56-5.58-.76-9.49-5.9-8.73-11.48.24-1.78.95-3.47,2.05-4.89,2.08-2.69,5.48-4.24,6.96-7.39,1.84-3.79.11-8.25,0-12.46-.12-4.81,2.06-9.39,5.86-12.34,2.01-1.5,4.53-2.55,5.74-4.74,1.58-2.83.38-6.34.54-9.59.75-16.34,28.04-12.97,35.37-3.93,1.73,2.06,2.68,4.66,2.67,7.34Z"/><path class="cls-5_twitter-84-08482" d="M325,205.08c3.82.65,1.99-.25,5.84.23,4.64.61,15.46,3.75,17.91-1.87.56-1.5.82-3.09.76-4.68.18-8.25,4.87-15.05,2.7-23.01-.12-.51-.34-.99-.64-1.41-.41-.49-.96-.84-1.57-1-4.6-1.41-7.07,3.16-6.51,7.07.81,5.28-4.8,8.62-4.74,13.96,0,0,7.3,2.49-9.73-1.57-2.42-.64-4.03,12.28-4.03,12.28Z"/><rect class="cls-6_twitter-84-08482 targetColor" x="342.99" y="165.58" width="5.46" height="14.9" rx="1.9" ry="1.9" transform="translate(-12.56 27.78) rotate(-4.52)" style="fill: rgb(105, 117, 101);"/><path class="cls-5_twitter-84-08482" d="M343.04,167.16c-1.91.74-3.25,2.49-3.45,4.53.07,2.55,1.69,4.8,4.09,5.66,2.37.81,4.91,1.02,7.39.62.77.03,1.5-.29,2.01-.86.23-.43.32-.93.27-1.41.12-1.79-.11-3.58-.69-5.28-1.37-3.24-6.48-4.5-9.61-3.25Z"/><path class="cls-6_twitter-84-08482 targetColor" d="M334.25,161.12l.76,4.24c.25,1.41,1.25,2.29,2.31,2.11,4.16-.72,14.36-2.12,21.62-.27,3.97,1.01,7.85,2.34,11.6,3.98,1.5.66,2.99-1,2.73-3.04l-2.73-22.75c-.24-1.99-1.98-3-3.25-1.84-5.23,4.75-17.37,14.15-30.97,14.15-1.46.29-2.42,1.71-2.13,3.17.02.08.04.17.06.25Z" style="fill: rgb(105, 117, 101);"/><path class="cls-3_twitter-84-08482" d="M348.07,350.2c-1.12,1.81-1.57,3.96-1.29,6.07.05.68.32,1.32.75,1.84.48.4,1.06.68,1.67.81,7.74,2.39,15.79,3.64,23.9,3.71,1.04.05,2.08-.09,3.07-.42.99-.36,1.74-1.18,1.99-2.21.07-.71-.06-1.42-.37-2.07-2.07-4.94-7.75-7.26-12.69-5.18-.02,0-.03.01-.05.02l-.31.14c-.81.47-1.67.85-2.56,1.13-.88.16-1.78.16-2.66,0-2.29-.27-4.55-.75-6.75-1.41-1.61-.72-3.18-1.53-4.71-2.42Z"/></g></svg>