<svg width="559" height="484" viewBox="0 0 559 484" fill="none" xmlns="http://www.w3.org/2000/svg">
<rect x="207.014" width="280.948" height="110.788" rx="55.3939" fill="#697565"/>
<rect x="77.4128" y="141.842" width="413.159" height="110.788" rx="55.3939" fill="#3C3D37"/>
<rect y="282.005" width="510.578" height="110.788" rx="55.3939" fill="#697565"/>
<path d="M481.45 391.666C482.232 400.297 475.592 408.206 466.213 408.997C456.834 409.789 448.872 403.113 448.089 394.482C447.307 385.852 453.947 377.943 463.326 377.151C472.704 376.359 480.667 383.036 481.45 391.666Z" stroke="#E0D3C1" stroke-width="10"/>
<path d="M503.112 389.837C504.941 410.012 489.451 428.098 468.108 429.9C446.766 431.702 428.256 416.486 426.427 396.311C424.597 376.136 440.088 358.05 461.43 356.248C482.773 354.447 501.283 369.663 503.112 389.837Z" stroke="#E0D3C1" stroke-width="10"/>
<path d="M524.774 388.009C527.65 419.728 503.31 447.991 470.003 450.803C436.697 453.615 407.64 429.859 404.764 398.14C401.888 366.421 426.229 338.158 459.535 335.346C492.842 332.534 521.898 356.29 524.774 388.009Z" stroke="#E0D3C1" stroke-width="10"/>
<path d="M546.437 386.18C550.36 429.443 517.169 467.884 471.899 471.705C426.628 475.527 387.024 443.232 383.102 399.969C379.179 356.705 412.37 318.265 457.64 314.443C502.91 310.621 542.514 342.917 546.437 386.18Z" stroke="#E0D3C1" stroke-width="10"/>
<path d="M38.377 198.598C61.1916 214.668 64.8263 198.642 63.7918 188.621C65.6733 194.152 71.6421 205.113 80.4654 204.71C88.9048 204.324 89.2434 193.823 88.278 187.94C89.0288 191.2 92.2706 197.024 100.701 199.289C109.849 201.746 109.908 185.703 108.794 177.374C113.971 182.37 125.756 190.981 131.477 185.461C137.198 179.941 135.346 171.148 133.706 167.442C135.533 169.205 140.891 172.146 147.704 169.803C156.221 166.875 150.979 104.492 143.003 112.188C136.622 118.345 136.602 126.005 137.39 129.065C133.723 123.934 124.959 115.053 119.238 120.573C113.517 126.094 114.362 134.976 115.499 138.727C109.865 133.291 97.4417 123.533 92.8211 127.991C88.2005 132.45 90.1713 142.597 91.7343 147.112C85.2162 141.354 70.9147 131.057 65.8541 135.94C60.7934 140.823 65.0378 148.776 67.7927 152.142C62.2767 148.943 50.0355 143.182 45.1986 145.733C40.3618 148.285 41.1847 155.483 42.2008 158.764C32.6169 154.612 23.1696 155.97 19.6439 157.168C16.3821 164.282 15.5623 182.529 38.377 198.598Z" fill="#E0D3C1"/>
</svg>
