<svg width="424" height="392" viewBox="0 0 424 392" fill="none" xmlns="http://www.w3.org/2000/svg">
<rect x="157.02" width="213.098" height="89.729" rx="44.8645" fill="#697565"/>
<rect x="58.7175" y="114.88" width="313.38" height="89.729" rx="44.8645" fill="#3C3D37"/>
<rect y="228.401" width="387.272" height="89.729" rx="44.8645" fill="#697565"/>
<path d="M363.977 317.326C364.55 324.063 359.728 329.747 353.541 330.305C347.354 330.863 341.647 326.128 341.075 319.39C340.503 312.652 345.325 306.968 351.512 306.41C357.699 305.853 363.405 310.588 363.977 317.326Z" stroke="#E0D3C1" stroke-width="10"/>
<path d="M380.408 315.844C381.774 331.932 370.24 345.859 354.978 347.234C339.717 348.61 326.01 336.958 324.644 320.871C323.278 304.783 334.813 290.856 350.074 289.481C365.336 288.105 379.042 299.757 380.408 315.844Z" stroke="#E0D3C1" stroke-width="10"/>
<path d="M396.839 314.363C398.999 339.801 380.752 361.97 356.416 364.164C332.08 366.358 310.373 347.79 308.213 322.352C306.053 296.915 324.3 274.745 348.637 272.551C372.973 270.358 394.679 288.926 396.839 314.363Z" stroke="#E0D3C1" stroke-width="10"/>
<path d="M413.27 312.882C416.224 347.669 391.264 378.082 357.853 381.093C324.443 384.105 294.736 358.62 291.782 323.833C288.829 289.046 313.788 258.634 347.199 255.622C380.61 252.61 410.316 278.095 413.27 312.882Z" stroke="#E0D3C1" stroke-width="10"/>
<path d="M29.1088 160.848C46.4136 173.863 49.1705 160.884 48.3858 152.767C49.813 157.247 54.3403 166.125 61.0327 165.798C67.434 165.486 67.6908 156.981 66.9586 152.216C67.528 154.857 69.987 159.573 76.3815 161.408C83.32 163.398 83.3649 150.404 82.5201 143.659C86.447 147.705 95.3856 154.679 99.7248 150.208C104.064 145.737 102.66 138.616 101.415 135.614C102.801 137.042 106.865 139.424 112.033 137.526C118.493 135.155 114.517 84.6299 108.467 90.8633C103.627 95.85 103.612 102.054 104.21 104.532C101.428 100.377 94.7809 93.1836 90.4417 97.6545C86.1025 102.125 86.7429 109.32 87.6055 112.358C83.3322 107.955 73.9092 100.051 70.4045 103.662C66.8997 107.274 68.3946 115.491 69.5801 119.149C64.6362 114.485 53.7886 106.145 49.9501 110.1C46.1115 114.055 49.331 120.496 51.4205 123.222C47.2366 120.631 37.9517 115.965 34.283 118.032C30.6142 120.098 31.2384 125.929 32.0092 128.586C24.7398 125.223 17.574 126.323 14.8998 127.293C12.4258 133.055 11.8039 147.833 29.1088 160.848Z" fill="#E0D3C1"/>
</svg>
