<svg width="128" height="51" viewBox="0 0 128 51" fill="none" xmlns="http://www.w3.org/2000/svg">
<path d="M39.88 36.18C40.23 35.41 40.65 34.4183 41.14 33.205C41.63 31.9917 42.1433 30.685 42.68 29.285C43.2167 27.8617 43.765 26.415 44.325 24.945C44.885 23.4517 45.41 22.04 45.9 20.71C46.39 19.38 46.81 18.19 47.16 17.14C47.5333 16.09 47.8017 15.285 47.965 14.725C46.495 15.3317 45.235 16.2533 44.185 17.49C43.135 18.7267 42.3417 20.2783 41.805 22.145C41.2683 21.9583 40.7783 21.6317 40.335 21.165C39.8917 20.675 39.6 20.0683 39.46 19.345C39.6933 18.2717 40.125 17.2917 40.755 16.405C41.4083 15.5183 42.225 14.76 43.205 14.13C44.185 13.5 45.3167 13.0217 46.6 12.695C47.8833 12.345 49.26 12.17 50.73 12.17C52.5967 12.17 54.3117 12.45 55.875 13.01C57.4383 13.5467 58.78 14.305 59.9 15.285C61.02 16.265 61.895 17.4433 62.525 18.82C63.155 20.1967 63.47 21.725 63.47 23.405C63.47 25.6917 63.05 27.8733 62.21 29.95C61.37 32.0267 60.2267 33.8583 58.78 35.445C57.3567 37.0317 55.7 38.2917 53.81 39.225C51.92 40.1817 49.9367 40.66 47.86 40.66C45.9467 40.66 44.3017 40.275 42.925 39.505C41.5717 38.7583 40.5567 37.65 39.88 36.18ZM52.235 13.92C51.0683 13.92 49.96 14.0833 48.91 14.41C49.9367 14.7833 50.7883 15.18 51.465 15.6C52.1417 15.9967 52.6083 16.3117 52.865 16.545C52.6783 16.8017 52.3983 17.2567 52.025 17.91C51.675 18.5633 51.255 19.3567 50.765 20.29C50.2983 21.2233 49.7967 22.25 49.26 23.37C48.7233 24.4667 48.1983 25.5983 47.685 26.765C46.355 29.7283 45.3867 32.0617 44.78 33.765C44.1967 35.4683 43.905 36.6467 43.905 37.3C44.2317 37.4167 44.6283 37.4983 45.095 37.545C45.5617 37.5917 46.0633 37.615 46.6 37.615C48.49 37.615 50.275 37.1833 51.955 36.32C53.6583 35.4333 55.14 34.255 56.4 32.785C57.6833 31.315 58.6867 29.6117 59.41 27.675C60.1567 25.715 60.53 23.6617 60.53 21.515C60.53 19.1117 59.7833 17.245 58.29 15.915C56.7967 14.585 54.7783 13.92 52.235 13.92ZM76.5403 23.86C76.7736 23.86 77.042 23.9067 77.3453 24C77.672 24.07 77.9636 24.175 78.2203 24.315C78.477 24.4317 78.687 24.56 78.8503 24.7C79.037 24.84 79.1303 24.9683 79.1303 25.085C78.6636 26.065 78.232 27.0567 77.8353 28.06C77.4386 29.04 77.1003 29.985 76.8203 30.895C76.5403 31.805 76.3186 32.6567 76.1553 33.45C76.0153 34.2433 75.9453 34.9317 75.9453 35.515C75.9453 36.1683 76.0153 36.7167 76.1553 37.16C76.2953 37.58 76.5286 37.8833 76.8553 38.07C76.5753 38.2567 76.2136 38.4083 75.7703 38.525C75.327 38.6417 74.9303 38.7 74.5803 38.7C73.3203 38.7 72.6903 37.8367 72.6903 36.11C72.6903 34.78 73.1336 32.96 74.0203 30.65C73.5536 31.7233 73.017 32.7383 72.4103 33.695C71.8036 34.6283 71.1853 35.4567 70.5553 36.18C69.9253 36.9033 69.2836 37.4983 68.6303 37.965C68.0003 38.4083 67.417 38.6767 66.8803 38.77C66.017 38.7233 65.317 38.315 64.7803 37.545C64.2436 36.7517 63.9753 35.7483 63.9753 34.535C63.9753 33.2283 64.2553 31.8517 64.8153 30.405C65.3753 28.9583 66.087 27.6167 66.9503 26.38C67.837 25.1433 68.7936 24.1167 69.8203 23.3C70.847 22.46 71.8386 22.0167 72.7953 21.97C73.0286 22.04 73.2853 22.18 73.5653 22.39C73.8686 22.6 74.1486 22.845 74.4053 23.125C74.6853 23.405 74.9186 23.6967 75.1053 24C75.292 24.28 75.397 24.525 75.4203 24.735C74.487 24.875 73.5186 25.33 72.5153 26.1C71.5353 26.87 70.637 27.8033 69.8203 28.9C69.027 29.9733 68.3736 31.1283 67.8603 32.365C67.347 33.6017 67.0903 34.7567 67.0903 35.83C67.0903 36.2733 67.2536 36.5533 67.5803 36.67C68.257 36.53 69.0386 35.9583 69.9253 34.955C70.812 33.9283 71.8853 32.3533 73.1453 30.23C73.3786 29.81 73.6353 29.3433 73.9153 28.83C74.2186 28.3167 74.522 27.78 74.8253 27.22C75.1286 26.66 75.4203 26.1 75.7003 25.54C76.0036 24.9567 76.2836 24.3967 76.5403 23.86ZM80.804 35.655C80.804 35.445 80.8157 35.1883 80.839 34.885C80.8857 34.5583 80.9557 34.1383 81.049 33.625C81.1424 33.0883 81.259 32.4467 81.399 31.7C81.5624 30.9533 81.7607 30.055 81.994 29.005C82.0407 28.7717 82.1457 28.3983 82.309 27.885C82.4724 27.3717 82.6824 26.835 82.939 26.275C83.219 25.6917 83.5457 25.1317 83.919 24.595C84.3157 24.0583 84.7824 23.6617 85.319 23.405C85.7157 23.4983 86.2407 23.7433 86.894 24.14C87.5474 24.5133 88.1074 25.0383 88.574 25.715C88.0374 26.3217 87.5824 26.9283 87.209 27.535C86.859 28.1417 86.5324 28.7717 86.229 29.425C85.949 30.0783 85.6807 30.755 85.424 31.455C85.1907 32.155 84.9224 32.89 84.619 33.66C84.3624 34.3133 84.129 34.99 83.919 35.69C83.709 36.3667 83.5924 36.9617 83.569 37.475C83.569 37.895 83.5574 38.1867 83.534 38.35C83.534 38.5367 83.4757 38.63 83.359 38.63C83.2657 38.63 83.079 38.5717 82.799 38.455C82.519 38.3383 82.2274 38.1633 81.924 37.93C81.644 37.6733 81.3874 37.3583 81.154 36.985C80.9207 36.6117 80.804 36.1683 80.804 35.655ZM87.489 20.465C87.489 20.325 87.524 20.115 87.594 19.835C87.4774 19.7183 87.3724 19.5433 87.279 19.31C87.209 19.0767 87.174 18.8667 87.174 18.68C87.174 18.47 87.1974 18.19 87.244 17.84C87.314 17.4667 87.3957 17.07 87.489 16.65C87.5824 16.23 87.699 15.7983 87.839 15.355C87.979 14.8883 88.119 14.4683 88.259 14.095C88.539 14.095 88.8774 14.1767 89.274 14.34C89.694 14.48 90.114 14.6783 90.534 14.935C90.954 15.1683 91.339 15.4367 91.689 15.74C92.039 16.02 92.3074 16.2883 92.494 16.545C92.2374 16.8017 91.899 17.1633 91.479 17.63C91.059 18.0733 90.6507 18.5517 90.254 19.065C89.8574 19.555 89.4957 20.0217 89.169 20.465C88.8424 20.9083 88.6324 21.2233 88.539 21.41C88.259 21.3633 88.014 21.2467 87.804 21.06C87.594 20.85 87.489 20.6517 87.489 20.465ZM89.0055 35.76C89.0055 34.7333 89.2505 33.2983 89.7405 31.455C90.2305 29.5883 90.9188 27.4183 91.8055 24.945C93.2522 21.0017 94.6055 17.7233 95.8655 15.11C97.1488 12.4733 98.3972 10.42 99.6105 8.95C99.8905 8.99666 100.229 9.11333 100.626 9.3C101.046 9.48667 101.454 9.69667 101.851 9.93C102.247 10.14 102.597 10.3617 102.901 10.595C103.227 10.8283 103.437 11.015 103.531 11.155C101.711 13.3017 100.112 15.6117 98.7355 18.085C97.3588 20.5583 96.0988 23.3933 94.9555 26.59C93.9755 29.3433 93.2288 31.8283 92.7155 34.045C92.2022 36.2383 91.9455 38.07 91.9455 39.54C91.9455 39.9367 91.9455 40.1817 91.9455 40.275C91.9455 40.3683 91.9572 40.4617 91.9805 40.555C91.6538 40.5083 91.3738 40.4267 91.1405 40.31C90.9072 40.1933 90.7555 40.0533 90.6855 39.89C90.6388 39.7733 90.5105 39.5983 90.3005 39.365C90.0905 39.155 89.9038 38.9917 89.7405 38.875C89.5305 38.735 89.3555 38.3733 89.2155 37.79C89.0755 37.1833 89.0055 36.5067 89.0055 35.76ZM101.305 39.225C99.9753 39.085 98.9136 38.5017 98.1203 37.475C97.3269 36.4483 96.9303 35.1417 96.9303 33.555C96.9303 32.6217 97.0703 31.6533 97.3503 30.65C97.6303 29.6467 98.0269 28.6783 98.5403 27.745C99.0536 26.7883 99.6603 25.89 100.36 25.05C101.06 24.21 101.819 23.4867 102.635 22.88C103.919 21.9233 105.12 21.445 106.24 21.445C106.987 21.8417 107.722 22.67 108.445 23.93C108.562 23.93 108.667 23.93 108.76 23.93C108.854 23.9067 108.959 23.895 109.075 23.895C110.312 23.895 110.93 24.9917 110.93 27.185C110.93 28.655 110.685 30.055 110.195 31.385C109.729 32.6917 109.064 33.8817 108.2 34.955C107.36 36.0283 106.345 36.9383 105.155 37.685C103.989 38.4083 102.705 38.9217 101.305 39.225ZM103.09 28.2C102.694 28.7367 102.32 29.32 101.97 29.95C101.62 30.58 101.317 31.2217 101.06 31.875C100.804 32.505 100.605 33.1233 100.465 33.73C100.325 34.3133 100.255 34.8383 100.255 35.305C100.255 35.865 100.349 36.4017 100.535 36.915C100.722 37.4283 100.932 37.72 101.165 37.79C102.215 37.5567 103.172 37.125 104.035 36.495C104.922 35.8417 105.68 35.0367 106.31 34.08C106.964 33.1233 107.465 32.0383 107.815 30.825C108.189 29.6117 108.375 28.3167 108.375 26.94C108.375 26.3333 108.34 25.855 108.27 25.505C108.2 25.155 108.084 24.8517 107.92 24.595C106.894 24.8983 105.972 25.3883 105.155 26.065C104.362 26.7417 103.674 27.4533 103.09 28.2ZM105.554 48.43C105.554 48.29 105.601 48.1617 105.694 48.045C105.788 47.9283 105.893 47.8117 106.009 47.695C106.289 47.9517 106.534 48.15 106.744 48.29C106.931 48.43 107.118 48.5467 107.304 48.64C107.468 48.7333 107.643 48.7917 107.829 48.815C108.016 48.8383 108.238 48.85 108.494 48.85C109.708 48.85 110.863 48.5233 111.959 47.87C113.056 47.24 114.083 46.3183 115.039 45.105C116.019 43.8917 116.906 42.41 117.699 40.66C118.493 38.91 119.193 36.9267 119.799 34.71C119.519 34.99 119.169 35.305 118.749 35.655C118.353 35.9817 117.933 36.2967 117.489 36.6C117.046 36.9033 116.603 37.1833 116.159 37.44C115.739 37.6967 115.378 37.8833 115.074 38C114.678 37.93 114.304 37.7667 113.954 37.51C113.628 37.23 113.336 36.8917 113.079 36.495C112.823 36.0983 112.624 35.655 112.484 35.165C112.344 34.6517 112.274 34.115 112.274 33.555C112.274 32.645 112.438 31.7117 112.764 30.755C113.114 29.7983 113.569 28.865 114.129 27.955C114.689 27.0217 115.343 26.1467 116.089 25.33C116.859 24.5133 117.664 23.8017 118.504 23.195C119.368 22.5883 120.231 22.11 121.094 21.76C121.981 21.3867 122.844 21.2 123.684 21.2C124.501 21.2 125.108 21.375 125.504 21.725C125.924 22.0517 126.228 22.6233 126.414 23.44C126.158 23.3 125.831 23.23 125.434 23.23C124.874 23.23 124.221 23.4517 123.474 23.895C122.751 24.3383 122.004 24.9217 121.234 25.645C120.488 26.345 119.741 27.1617 118.994 28.095C118.248 29.005 117.583 29.9383 116.999 30.895C116.439 31.8517 115.973 32.785 115.599 33.695C115.249 34.605 115.074 35.4217 115.074 36.145C115.074 36.3083 115.086 36.4133 115.109 36.46C115.133 36.4833 115.168 36.495 115.214 36.495C115.424 36.495 115.704 36.3783 116.054 36.145C116.428 35.9117 116.836 35.62 117.279 35.27C117.746 34.8967 118.224 34.4767 118.714 34.01C119.204 33.52 119.671 33.03 120.114 32.54C121.118 31.42 122.028 30.1717 122.844 28.795C123.684 27.395 124.349 26.0417 124.839 24.735C125.469 24.7817 126.029 24.8867 126.519 25.05C127.009 25.2133 127.348 25.3883 127.534 25.575C126.741 27.395 126.099 28.9233 125.609 30.16C125.143 31.3967 124.734 32.4933 124.384 33.45C123.754 35.13 123.159 36.6583 122.599 38.035C122.063 39.435 121.503 40.7183 120.919 41.885C120.359 43.075 119.741 44.1717 119.064 45.175C118.411 46.2017 117.664 47.1817 116.824 48.115C116.428 48.5583 115.973 48.9433 115.459 49.27C114.969 49.62 114.456 49.9117 113.919 50.145C113.406 50.3783 112.893 50.5533 112.379 50.67C111.889 50.7867 111.434 50.845 111.014 50.845C110.454 50.845 109.883 50.775 109.299 50.635C108.716 50.5183 108.179 50.3433 107.689 50.11C107.176 49.9 106.733 49.6433 106.359 49.34C105.986 49.06 105.718 48.7567 105.554 48.43Z" fill="#697565"/>
<circle cx="15" cy="25" r="13" stroke="#697565" stroke-width="4"/>
</svg>
